<svg xmlns="http://www.w3.org/2000/svg" width="131" height="200"><path d="M59.89.225c-7.038 1.09-13.118 5.759-15.408 11.83-.548 1.453-.563 1.456-3.05.606-6.554-2.24-12.934-1.175-18.217 3.042C13.192 23.701 9.93 33.02 13.963 42.135c.667 1.51.61 1.598-1.582 2.447C4.6 47.6.641 53.71.271 63.272c-.426 11.03 3.462 18.3 11.607 21.707 1.964.82 1.939.733.995 3.469-3.002 8.707-1.279 15.165 6 22.485 6.96 7 13.768 8.924 21.823 6.172 2.814-.962 2.833-.958 3.479.76 2.657 7.067 7.695 10.992 15.97 12.44l2.091.365V149.997l-2.165-1.115c-3.704-1.908-7.442-2.907-14.158-3.782-6.62-.862-7.887-1.057-10.203-1.568-1.29-.285-3.586-.977-5.101-1.538-6.739-2.496-8.065-.895-6.545 7.896 2.87 16.603 10.897 29.207 21.377 33.57 4.712 1.96 11.99 2.586 15.537 1.334 1.193-.42 1.182-.474 1.32 6.518.146 7.376.382 8.188 2.495 8.585 3.175.595 3.738-.604 3.945-8.395.08-3.07.205-5.638.275-5.708.07-.07.847.037 1.726.24 6.425 1.483 14.832-.445 20.478-4.696 7.076-5.327 13.165-16.711 15.393-28.779 1.755-9.505.8-11.87-4.09-10.123-5.643 2.018-8.605 2.683-16.41 3.683-8.656 1.108-10.857 1.68-15.048 3.906l-2.296 1.219v-20.776l1.48-.26c7.384-1.3 12.313-5.365 15.062-12.422.466-1.197.864-2.196.885-2.22.02-.023.932.406 2.025.954 7.768 3.896 15.955 2.153 23.35-4.97 7.503-7.226 9.55-14.606 6.347-22.871-1.026-2.648-1.09-2.502 1.702-3.902 7.667-3.845 10.738-9.138 11.118-19.16.329-8.687-2.454-15.182-8.1-18.907-2.11-1.392-4.649-2.625-5.693-2.766-1.034-.138-1.034-.12.053-2.718 3.81-9.108.376-18.205-9.766-25.864-6.088-4.598-12.976-5.4-19.64-2.284l-1.685.788-.981-2.08C81.86 5.296 77.313 1.67 70.806.537 68.528.137 61.704-.057 59.89.224m10.843 6.797c4.796 1.013 8.186 5.063 9.473 11.319.985 4.785 2.621 5.324 7.06 2.325 7.151-4.832 12.878-4.029 19.585 2.746 6.678 6.744 7.09 12.115 1.552 20.174-2.21 3.215-1.144 4.93 3.606 5.8 8.731 1.601 12.414 5.993 12.327 14.701-.106 10.626-2.551 13.894-12.21 16.318-3.266.82-3.973 1.385-3.971 3.169 0 .852.233 1.333 2.273 4.693 4.196 6.91 3.512 11.497-2.673 17.902-7.032 7.284-12.94 7.957-20.483 2.334-3.897-2.905-6.074-2.542-6.664 1.11-1.793 11.11-5.635 14.577-16.127 14.556-9.14-.02-13.016-2.914-15-11.206-1.42-5.939-2.346-6.664-5.867-4.595-3.443 2.023-4.207 2.421-5.66 2.953-5.116 1.872-9.466.282-15.078-5.511-6.395-6.601-6.865-11.388-1.864-18.976 2.693-4.087 2.12-5.406-2.874-6.616-8.25-1.998-11.05-5.506-11.337-14.193C6.438 55.015 9.89 50.82 20.85 48.94c2.974-.51 3.176-2.858.575-6.687-4.444-6.546-3.749-12.047 2.344-18.523 6.163-6.551 11.577-7.558 18.742-3.486 4.278 2.431 5.972 1.965 6.769-1.863 1.539-7.39 5.759-11.429 12.344-11.812 2.768-.162 7.253.062 9.109.454M32.28 39.005c-1.89.957-2.359 2.654-1.213 4.384.577.871 8.386 9.243 8.942 9.587.114.07-1.581 1.95-3.766 4.18-6.468 6.597-6.883 7.475-4.516 9.553 1.824 1.602 2.694 1.11 8.932-5.045l4.031-3.978 3.825 3.772c6.313 6.229 7.382 6.837 9.384 5.346 2.638-1.963 1.427-4.075-7.167-12.5l-1.34-1.315 4.242-4.296c2.333-2.363 4.534-4.701 4.891-5.195 1.197-1.654.706-3.498-1.189-4.468-1.719-.88-2.034-.678-8.095 5.177l-4.35 4.203-4.132-4.02c-6.069-5.902-6.684-6.293-8.479-5.385m37.96-.087c-3.393 1.673-2.805 3.29 3.585 9.865l4.264 4.387-4.24 4.342c-5.745 5.885-6.32 6.905-4.948 8.784 1.742 2.385 3.158 1.705 9.715-4.664l4.037-3.921 4.023 3.962c6.239 6.145 7.15 6.64 9.27 5.023 2.287-1.745 1.342-3.443-5.93-10.655l-2.865-2.843 4.3-4.386c5.8-5.913 6.291-6.794 4.883-8.738-1.843-2.544-2.62-2.187-9.382 4.303-3.392 3.256-4.22 3.953-4.507 3.8-.193-.104-2.044-1.823-4.113-3.821-5.91-5.707-6.602-6.172-8.091-5.438M55.807 78.709c-9.926 1.18-16.901 5.164-15.597 8.908.666 1.91 2.755 2.328 5.089 1.02 3.2-1.794 4.352-2.322 4.574-2.1.13.13.276 1.7.356 3.833.308 8.203 2.862 12.97 7.462 13.925 1.72.358 8.236-.012 9.347-.53 3.924-1.83 5.8-6.713 5.806-15.115 0-1.569.08-2.334.257-2.476.529-.428 10.575 2.196 18.56 4.848 7.441 2.47 8.06 2.474 9.068.061 1.126-2.697-.244-3.766-8.295-6.467-14.026-4.705-27.907-6.943-36.627-5.907m9.965 6.309l.58.142-.139 9.647-.678 1.378c-.91 1.847-1.234 2.03-3.776 2.129-4.387.171-5.184-1.543-5.227-11.245l-.011-2.422 4.336.114c2.385.063 4.597.178 4.915.257m-31.616 64.658c1.807.387 4.755.898 6.551 1.134 14.838 1.954 17.278 2.855 19.886 7.343 1.778 3.058 1.941 4.773 1.506 15.806l-.135 3.424-1.211.572c-3.428 1.622-9.577 1.303-13.72-.712-7.333-3.565-12.948-12.262-16.01-24.8-.67-2.746-.75-3.472-.386-3.472.128 0 1.712.317 3.52.705m66.44.75c0 3.427-4.069 14.307-7.086 18.95-5.994 9.224-16.093 13.341-23.524 9.59l-1.222-.618V162.61l1.128-2.206c2.837-5.546 4.97-6.487 18.767-8.276 3.744-.485 10.053-1.613 10.278-1.837.202-.203 1.658-.083 1.658.136" fill="#212529"/></svg>
