<?xml version="1.0" standalone="no"?>
<!DOCTYPE svg PUBLIC "-//W3C//DTD SVG 1.0//EN" "http://www.w3.org/TR/2001/REC-SVG-20010904/DTD/svg10.dtd">
<svg xmlns="http://www.w3.org/2000/svg" xmlns:xlink="http://www.w3.org/1999/xlink" id="body_1" width="131" height="200">

<g transform="matrix(0.3275 0 0 0.3275 -0 0.01588127)">
    <path d="M182.87 0.64C 161.381 3.968 142.814 18.223 135.82399 36.76C 134.15 41.197 134.103 41.205997 126.51199 38.612C 106.49899 31.772 87.01799 35.024 70.884995 47.9C 40.281994 72.32201 30.323994 100.773 42.633995 128.60901C 44.671997 133.218 44.498997 133.48601 37.804996 136.08101C 14.042997 145.296 1.9559975 163.949 0.8279953 193.14601C -0.47200465 226.82901 11.397995 249.02802 36.268997 259.42902C 42.264996 261.936 42.187996 261.66803 39.308 270.02103C 30.14 296.60703 35.403 316.32803 57.628998 338.67804C 78.881996 360.05005 99.668 365.92804 124.263 357.52304C 132.855 354.58603 132.913 354.59903 134.885 359.84503C 142.997 381.42203 158.383 393.40704 183.64899 397.82703L183.64899 397.82703L190.03499 398.94403L190.03499 428.45102L190.03499 457.959L183.42299 454.552C 172.11398 448.727 160.69899 445.678 140.191 443.006C 119.980995 440.372 116.10899 439.777 109.037994 438.21802C 105.09699 437.34802 98.088 435.23502 93.46199 433.522C 72.88599 425.901 68.83599 430.78702 73.47799 457.63202C 82.24299 508.32703 106.749985 546.812 138.75198 560.132C 153.13898 566.12103 175.361 568.031 186.193 564.20905C 189.834 562.9241 189.801 562.7601 190.22299 584.11005C 190.66899 606.63306 191.39 609.11304 197.842 610.32306C 207.536 612.142 209.256 608.4811 209.886 584.69006C 210.134 575.3191 210.513 567.47504 210.728 567.2601C 210.943 567.0451 213.314 567.37506 215.997 567.99506C 235.614 572.52106 261.285 566.6351 278.526 553.655C 300.13 537.39105 318.725 502.62802 325.528 465.78104C 330.88702 436.75705 327.96902 429.53503 313.04 434.87204C 295.807 441.03305 286.763 443.06204 262.932 446.11505C 236.5 449.50104 229.78 451.24606 216.98201 458.04205L216.98201 458.04205L209.973 461.76404L209.973 430.04605L209.973 398.32806L214.49 397.53305C 237.03801 393.56406 252.09 381.15106 260.483 359.60306C 261.906 355.94806 263.122 352.89807 263.185 352.82605C 263.247 352.75406 266.03 354.06506 269.368 355.73904C 293.086 367.63403 318.084 362.31305 340.66702 340.56204C 363.575 318.49805 369.82803 295.96503 360.04703 270.72705C 356.91302 262.64105 356.72003 263.08606 365.24203 258.81204C 388.65305 247.07204 398.03204 230.90904 399.19104 200.31004C 400.19504 173.78305 391.69904 153.95004 374.46005 142.57704C 368.01505 138.32603 360.26404 134.56104 357.07605 134.13304C 353.91904 133.71004 353.91806 133.76704 357.23804 125.83204C 368.87305 98.02304 358.38403 70.24504 327.41803 46.85904C 308.82703 32.81804 287.79602 30.37204 267.44504 39.88404L267.44504 39.88404L262.30103 42.28904L259.30603 35.94104C 249.95403 16.11804 236.06802 5.04904 216.20303 1.5860405C 209.24503 0.37304044 188.40903 -0.2199595 182.87003 0.6380405M215.97803 21.39304C 230.62303 24.485039 240.97302 36.85104 244.90303 55.95304C 247.91003 70.56504 252.90804 72.211044 266.46304 63.05304C 288.29706 48.30004 305.78406 50.75204 326.26404 71.43704C 346.65204 92.030045 347.91403 108.43204 331.00104 133.03804C 324.25305 142.85504 327.50903 148.09305 342.01105 150.75104C 368.67206 155.63803 379.91806 169.04904 379.65204 195.63704C 379.32703 228.08304 371.86203 238.06004 342.37204 245.46404C 332.39703 247.96904 330.23804 249.69104 330.24304 255.13803C 330.24506 257.74002 330.95605 259.20804 337.18503 269.46802C 349.99802 290.571 347.90704 304.57303 329.02304 324.13303C 307.55103 346.37302 289.51004 348.42804 266.47803 331.25702C 254.58102 322.38702 247.93202 323.49503 246.13202 334.64703C 240.65701 368.57004 228.92603 379.15903 196.88902 379.09204C 168.97902 379.03403 157.14603 370.19504 151.08803 344.87604C 146.75003 326.74304 143.92303 324.52905 133.17303 330.84503C 122.658035 337.02304 120.32803 338.23904 115.89204 339.86203C 100.268036 345.57904 86.98704 340.72504 69.85004 323.03503C 50.324036 302.87903 48.889038 288.26202 64.159035 265.09402C 72.38303 252.61502 70.63303 248.58603 55.384033 244.89203C 30.195034 238.79002 21.641033 228.08003 20.767033 201.55603C 19.659033 167.93703 30.195034 155.12303 63.663033 149.38403C 72.74503 147.82603 73.36203 140.65804 65.421036 128.96503C 51.849037 108.97803 53.973038 92.18202 72.577034 72.40603C 91.394035 52.40303 107.92703 49.32803 129.80603 61.762028C 142.86803 69.18603 148.03903 67.762024 150.47203 56.07303C 155.17104 33.507027 168.05704 21.177029 188.16603 20.005028C 196.61603 19.513027 210.31104 20.196028 215.97803 21.393028M98.56802 119.052025C 92.79903 121.97402 91.36502 127.15502 94.86302 132.43703C 96.62502 135.09703 120.469025 160.65903 122.16902 161.71002C 122.51502 161.92403 117.34002 167.66702 110.66802 174.47302C 90.91802 194.61702 89.651024 197.29903 96.87802 203.64403C 102.44802 208.53503 105.10602 207.03403 124.15202 188.24002L124.15202 188.24002L136.46202 176.09203L148.13902 187.61102C 167.41702 206.62802 170.68002 208.48703 176.79503 203.93402C 184.84802 197.93903 181.15103 191.49103 154.91103 165.76501L154.91103 165.76501L150.81602 161.751L163.77002 148.63101C 170.89401 141.41602 177.61502 134.27802 178.70602 132.77101C 182.35902 127.71901 180.86102 122.08801 175.07602 119.12601C 169.82703 116.43901 168.86401 117.05601 150.35602 134.93501L150.35602 134.93501L137.07202 147.76701L124.45702 135.49501C 105.928024 117.47101 104.04802 116.27701 98.56802 119.05201M214.47803 118.78501C 204.11703 123.89201 205.91203 128.83002 225.42403 148.908L225.42403 148.908L238.44302 162.30301L225.49802 175.56201C 207.95401 193.53001 206.19902 196.64601 210.38802 202.38101C 215.70702 209.66301 220.03001 207.587 240.05202 188.141L240.05202 188.141L252.37901 176.168L264.66302 188.26599C 283.713 207.02899 286.497 208.538 292.96902 203.60199C 299.95102 198.27599 297.06604 193.09099 274.86304 171.06898L274.86304 171.06898L266.11203 162.38898L279.24503 148.99597C 296.95102 130.93997 298.45303 128.25197 294.15204 122.31497C 288.52603 114.54797 286.15305 115.63697 265.50604 135.45398C 255.14705 145.39697 252.62204 147.52498 251.74405 147.05598C 251.15305 146.73898 245.50105 141.48898 239.18405 135.38898C 221.14105 117.96498 219.02505 116.54298 214.47806 118.78497M170.40405 240.28497C 140.09505 243.88898 118.79706 256.05298 122.78005 267.485C 124.81105 273.31497 131.19106 274.594 138.31705 270.59998C 148.09105 265.12198 151.60504 263.50797 152.28404 264.18698C 152.68204 264.58398 153.12704 269.37598 153.37105 275.88898C 154.31004 300.93698 162.11105 315.49496 176.15605 318.41098C 181.41005 319.50198 201.30505 318.37198 204.69705 316.78998C 216.67705 311.20398 222.40405 296.29398 222.42406 270.63797C 222.42706 265.84796 222.67006 263.51096 223.20805 263.07697C 224.82405 261.77197 255.49805 269.78497 279.88306 277.88095C 302.60205 285.42395 304.49005 285.43695 307.56805 278.06796C 311.00906 269.83298 306.82306 266.56796 282.24207 258.32196C 239.41406 243.95496 197.03006 237.11996 170.40207 240.28496M200.83206 259.54697L202.60207 259.98096L202.17807 289.43896L200.10606 293.64597C 197.32806 299.28598 196.34006 299.84296 188.57607 300.14597C 175.18106 300.66898 172.74806 295.43396 172.61606 265.81195L172.61606 265.81195L172.58305 258.41495L185.82306 258.76395C 193.10406 258.95593 199.85905 259.30795 200.83206 259.54694M104.29406 456.97693C 109.81206 458.15994 118.81306 459.71793 124.29606 460.43994C 169.60406 466.40793 177.05206 469.15793 185.01807 482.86295C 190.44606 492.19995 190.94406 497.43695 189.61607 531.12396L189.61607 531.12396L189.20407 541.57794L185.50507 543.32697C 175.03706 548.27795 156.26407 547.303 143.61107 541.152C 121.22007 530.26697 104.076065 503.70898 94.72807 465.42398C 92.68008 457.041 92.434074 454.826 93.54707 454.826C 93.94007 454.826 98.77608 455.79398 104.294075 456.977M307.16406 459.26797C 307.16406 469.731 294.74307 502.95297 285.53006 517.131C 267.22705 545.29596 236.39206 557.86597 213.70206 546.412L213.70206 546.412L209.96806 544.527L209.96806 520.49896L209.96806 496.46997L213.41507 489.73096C 222.07707 472.79794 228.59007 469.92496 270.71606 464.46295C 282.15106 462.98096 301.41507 459.53595 302.10007 458.85196C 302.71906 458.23297 307.16406 458.59796 307.16406 459.26794" stroke="none" fill="#212529" fill-rule="nonzero" />
</g>
</svg>