<?xml version="1.0" encoding="UTF-8"?>
<svg version="1.1" viewBox="0 0 400 411.4" xmlns="http://www.w3.org/2000/svg">
<g fill-rule="evenodd">
<path d="m96.715 7.694c-0.476 0.133-1.301 1.109-1.467 1.736-0.064 0.242 0.111 0.056 0.402-0.429 0.394-0.656 0.688-0.925 1.254-1.148 0.729-0.287 0.614-0.384-0.189-0.159m3.092 0.187c0.569 0.172 3.377 1.88 4.181 2.543 0.231 0.191 2.068 1.41 2.73 1.811 0.289 0.176 0.564 0.374 0.612 0.441 0.047 0.066 1.54 1.118 3.317 2.338 2.939 2.016 5.56 3.837 7.141 4.959 1.765 1.253 6.75 4.797 7.72 5.488 0.898 0.64 6.223 4.558 9.437 6.944 0.952 0.707 1.945 1.44 2.205 1.628 0.261 0.189 1.228 0.922 2.149 1.629s1.839 1.399 2.041 1.537c0.201 0.137 0.636 0.468 0.966 0.734 0.33 0.267 0.677 0.54 0.772 0.609 0.094 0.068 1.206 0.934 2.472 1.923 1.265 0.989 2.895 2.261 3.621 2.827 2.424 1.887 2.638 2.056 2.933 2.315 0.161 0.141 0.395 0.336 0.52 0.433 0.984 0.766 2.91 2.307 3.416 2.733 0.34 0.286 0.909 0.751 1.265 1.034 1.063 0.846 4.013 3.29 5.645 4.676 5.21 4.427 6.238 5.303 6.679 5.692 0.269 0.239 0.694 0.612 0.943 0.83 0.249 0.219 0.607 0.533 0.795 0.698 2.199 1.932 7.295 6.487 8.23 7.357 0.66 0.613 2.163 2.01 3.341 3.104 2.776 2.58 16.237 16.037 18.348 18.343 0.896 0.979 1.899 2.06 2.229 2.402 0.33 0.343 1.419 1.548 2.421 2.678 1.001 1.131 2.506 2.828 3.343 3.772 3.007 3.391 6.291 7.366 10.619 12.857 1.374 1.743 5.493 7.222 6.252 8.316 0.229 0.33 0.481 0.677 0.56 0.771s0.675 0.943 1.325 1.886c0.649 0.943 1.414 2.028 1.699 2.411 1.929 2.592 1.531 4.928-1.062 6.23-0.638 0.32-1.124 0.618-1.081 0.662 0.044 0.044 0.644-0.22 1.332-0.587 2.528-1.345 2.901-4.237 0.846-6.556-0.201-0.227-0.365-0.507-0.365-0.622 0-0.116-0.124-0.313-0.275-0.438-0.268-0.223-1.498-1.91-1.895-2.599-0.108-0.19-0.364-0.547-0.567-0.794-0.42-0.512-2.361-3.132-2.749-3.711-0.703-1.049-2.824-3.786-3.027-3.906-0.127-0.075-0.231-0.22-0.231-0.322s-0.274-0.503-0.609-0.892c-0.334-0.388-0.666-0.783-0.736-0.878-0.711-0.953-2.113-2.724-2.648-3.343-0.367-0.424-0.856-1.003-1.088-1.286-0.231-0.283-0.514-0.628-0.627-0.766-0.114-0.139-0.759-0.928-1.434-1.754-0.674-0.825-1.33-1.614-1.457-1.751-0.127-0.138-0.462-0.534-0.745-0.88s-0.727-0.831-0.986-1.078c-0.259-0.246-0.471-0.54-0.471-0.653s-0.188-0.346-0.416-0.519c-0.229-0.173-1.356-1.394-2.504-2.715-2.439-2.803-5.258-5.86-6.896-7.476-0.637-0.628-1.157-1.186-1.157-1.24 0-0.075-5.802-6.028-6.711-6.886-0.1-0.094-1.479-1.444-3.065-3-1.587-1.556-3.622-3.524-4.523-4.372-0.901-0.849-2.088-1.968-2.636-2.486-1.388-1.312-3.972-3.664-5.654-5.146-0.778-0.685-1.415-1.312-1.415-1.393 0-0.082-0.101-0.148-0.226-0.148-0.124 0-0.47-0.251-0.769-0.557-1.272-1.303-1.671-1.672-1.802-1.672-0.077 0-0.334-0.231-0.573-0.514-0.238-0.283-0.541-0.515-0.674-0.515s-0.242-0.067-0.242-0.15c0-0.082-0.714-0.756-1.586-1.497-0.872-0.742-1.671-1.426-1.774-1.522s-0.517-0.444-0.92-0.774c-0.402-0.33-0.929-0.812-1.169-1.072-0.241-0.259-0.509-0.471-0.597-0.471s-0.375-0.212-0.637-0.472c-0.262-0.259-0.619-0.587-0.792-0.728-1.794-1.462-3.367-2.754-3.581-2.942-0.144-0.126-0.474-0.403-0.733-0.613-0.258-0.211-0.779-0.644-1.156-0.962-0.377-0.319-1.38-1.129-2.229-1.801-1.72-1.363-2.249-1.795-3.278-2.678-0.389-0.333-0.794-0.606-0.9-0.606-0.107 0-0.194-0.062-0.194-0.138s-0.501-0.507-1.114-0.957-1.115-0.889-1.115-0.976-0.101-0.158-0.225-0.158-0.447-0.231-0.718-0.514-0.59-0.514-0.709-0.514-0.278-0.104-0.354-0.231c-0.126-0.214-2.951-2.398-3.951-3.057-0.24-0.157-0.482-0.357-0.54-0.442-0.057-0.086-0.952-0.778-1.99-1.539-1.037-0.761-2.019-1.506-2.182-1.654-0.163-0.149-1.012-0.787-1.886-1.417s-1.615-1.21-1.647-1.29c-0.031-0.079-0.138-0.143-0.236-0.143-0.099 0-0.47-0.251-0.825-0.557-0.355-0.307-1.136-0.9-1.736-1.319-0.599-0.419-1.205-0.865-1.346-0.991-0.142-0.126-0.527-0.417-0.857-0.648-1.424-0.993-1.853-1.299-2.744-1.957-0.518-0.383-1.213-0.888-1.543-1.123s-1.294-0.929-2.143-1.541-2.006-1.437-2.572-1.834-1.054-0.785-1.086-0.863c-0.031-0.077-0.147-0.14-0.257-0.141-0.11 0-0.47-0.231-0.8-0.514-0.33-0.282-0.696-0.513-0.814-0.513-0.118-1e-3 -0.215-0.059-0.215-0.129 0-0.071-0.405-0.396-0.9-0.722-0.495-0.327-1.071-0.742-1.279-0.924-0.209-0.182-0.524-0.417-0.701-0.521-0.877-0.521-2.369-1.543-2.52-1.726-0.095-0.114-0.375-0.317-0.624-0.451-0.677-0.364-2.626-1.742-2.691-1.903-0.032-0.077-0.14-0.14-0.241-0.14s-0.461-0.212-0.8-0.471c-0.339-0.258-1.181-0.839-1.871-1.29-0.69-0.45-1.418-0.972-1.618-1.158s-0.416-0.339-0.481-0.339c-0.115 0-2.281-1.386-2.686-1.718-0.298-0.246-1.047-0.513-1.387-0.496-0.161 8e-3 -0.09 0.075 0.161 0.151m-4.887 2.327c-0.058 0.153-0.1 0.407-0.092 0.565 8e-3 0.157 0.083 0.058 0.166-0.22 0.162-0.541 0.105-0.809-0.074-0.345m-0.204 5.051c0 2.216 0.024 3.123 0.054 2.015s0.03-2.921 0-4.029-0.054-0.202-0.054 2.014m-0.031 5.744c2e-3 0.377 0.037 0.511 0.078 0.298s0.04-0.522-3e-3 -0.686-0.077 0.011-0.075 0.388m-0.175 1.8c0 0.33 0.036 0.465 0.079 0.3s0.043-0.435 0-0.6-0.079-0.03-0.079 0.3m-2.685 15.358c-0.063 0.251-0.081 0.489-0.041 0.53 0.041 0.04 0.125-0.132 0.188-0.383 0.063-0.252 0.082-0.49 0.042-0.531-0.041-0.04-0.126 0.132-0.189 0.384m-0.355 1.384c-0.06 0.364-0.151 0.892-0.203 1.175s-0.044 0.467 0.017 0.409c0.136-0.129 0.463-2.075 0.365-2.173-0.039-0.039-0.12 0.226-0.179 0.589m-0.502 2.216c-0.063 0.251-0.081 0.49-0.041 0.53 0.04 0.041 0.125-0.132 0.188-0.383s0.082-0.49 0.041-0.53c-0.04-0.041-0.125 0.132-0.188 0.383m-0.343 1.2c-0.063 0.252-0.081 0.49-0.041 0.531 0.04 0.04 0.125-0.133 0.188-0.384s0.082-0.49 0.041-0.53c-0.04-0.041-0.125 0.132-0.188 0.383m-2.065 7.261c-0.253 0.759-0.424 1.516-0.38 1.683 0.065 0.249 0.082 0.24 0.098-0.053 0.011-0.196 0.213-0.923 0.449-1.615 0.235-0.693 0.397-1.29 0.36-1.327s-0.274 0.553-0.527 1.312m-1.011 3.275c-0.248 0.669-0.45 1.347-0.449 1.506 2e-3 0.16 0.23-0.362 0.508-1.16 0.615-1.767 0.569-2.039-0.059-0.346m-0.622 1.928c0 0.056-0.236 0.744-0.525 1.529-0.289 0.784-0.457 1.349-0.374 1.254 0.256-0.29 1.114-2.67 1.003-2.781-0.057-0.058-0.104-0.059-0.104-2e-3m-1.34 4.016c-0.199 0.539-0.333 1.009-0.299 1.043 0.034 0.035 0.227-0.377 0.428-0.915 0.201-0.537 0.336-1.007 0.299-1.044-0.036-0.036-0.229 0.376-0.428 0.916m-0.611 1.517c-0.059 0.153-0.1 0.407-0.092 0.565 8e-3 0.157 0.083 0.058 0.166-0.22 0.161-0.541 0.104-0.809-0.074-0.345m-0.684 2.074c-0.256 0.623-0.434 1.166-0.394 1.206 0.039 0.039 0.277-0.443 0.529-1.071 0.252-0.629 0.429-1.171 0.394-1.206s-0.273 0.447-0.529 1.071m-0.676 1.992c-0.126 0.306-0.389 0.981-0.585 1.5-0.195 0.518-0.595 1.56-0.889 2.314-0.293 0.755-0.53 1.488-0.526 1.629 8e-3 0.25 0.215-0.255 1.195-2.914 0.26-0.708 0.636-1.691 0.835-2.187 0.198-0.495 0.325-0.9 0.28-0.9-0.044 0-0.184 0.251-0.31 0.558m-2.504 6.565c-0.487 1.1-0.437 1.204 0.091 0.19 0.238-0.457 0.395-0.868 0.349-0.914s-0.244 0.28-0.44 0.724m-1.188 3.013c-0.298 0.674-0.541 1.29-0.541 1.37 0 0.079-0.232 0.65-0.515 1.268-0.282 0.617-0.514 1.205-0.514 1.305s-0.231 0.682-0.514 1.293c-0.283 0.612-0.509 1.241-0.501 1.4 0.011 0.232 0.03 0.238 0.101 0.031 0.048-0.142 0.262-0.643 0.477-1.115 0.214-0.471 0.446-1.05 0.515-1.286 0.069-0.235 0.342-0.93 0.607-1.543 0.767-1.776 1.549-3.824 1.485-3.888-0.033-0.033-0.303 0.492-0.6 1.165m284.04 2.9c-1.263 0.313-2.487 1.273-5.139 4.03-0.722 0.751-1.876 1.867-2.564 2.48-0.689 0.613-1.46 1.327-1.714 1.586s-0.542 0.471-0.64 0.471-0.286 0.154-0.418 0.342c-0.131 0.187-0.516 0.554-0.854 0.814-2.324 1.787-4.028 3.082-4.346 3.302-2.053 1.424-2.561 1.796-2.61 1.917-0.031 0.077-0.152 0.141-0.268 0.141s-0.377 0.155-0.582 0.346c-0.204 0.19-0.846 0.634-1.426 0.986-0.58 0.351-1.227 0.755-1.438 0.897-0.211 0.141-0.915 0.586-1.564 0.988-0.649 0.403-1.333 0.827-1.519 0.943-1.48 0.924-2.173 1.326-2.284 1.326-0.071 0-0.315 0.135-0.541 0.3-0.448 0.327-1.876 1.161-3.094 1.806-0.424 0.225-1.273 0.682-1.886 1.017-2.361 1.288-5.211 2.779-6.215 3.251-0.339 0.16-0.542 0.259-1.856 0.91-0.512 0.254-1.123 0.563-1.359 0.688-0.845 0.445-2.759 1.355-5.229 2.487-1.593 0.729-3.009 1.385-4.401 2.036-0.628 0.295-1.199 0.536-1.268 0.536-0.123 0-0.906 0.356-3.522 1.606-0.718 0.342-1.366 0.622-1.441 0.622s-0.627 0.232-1.225 0.515c-0.599 0.283-1.168 0.514-1.265 0.514s-0.634 0.232-1.195 0.515c-0.56 0.282-1.1 0.514-1.2 0.514-0.099 0-0.727 0.27-1.395 0.6s-1.295 0.6-1.393 0.6c-0.099 0-0.669 0.232-1.268 0.514-0.598 0.283-1.162 0.515-1.252 0.515-0.089 0-0.649 0.221-1.242 0.491-1.738 0.79-4.047 1.738-4.234 1.738-0.095 0-0.659 0.221-1.253 0.491-1.689 0.768-4.044 1.738-4.221 1.738-0.088 0-0.613 0.208-1.167 0.464-0.553 0.255-1.469 0.632-2.035 0.837-2.282 0.829-2.612 0.96-3.6 1.422-0.566 0.264-1.259 0.537-1.541 0.606-0.281 0.07-0.92 0.313-1.419 0.542-0.5 0.228-0.973 0.415-1.052 0.415-0.08 0-0.675 0.221-1.324 0.491-1.886 0.786-3.01 1.232-3.837 1.522-0.424 0.149-1.196 0.46-1.715 0.692-0.518 0.232-1.328 0.536-1.8 0.676-0.471 0.14-0.934 0.313-1.029 0.386-0.094 0.072-0.711 0.327-1.371 0.567s-1.625 0.609-2.143 0.819c-0.519 0.21-1.522 0.609-2.229 0.887s-1.826 0.73-2.486 1.005-1.287 0.5-1.393 0.499c-0.106 0-0.786 0.27-1.51 0.6s-1.387 0.6-1.474 0.6c-0.086 0-0.565 0.187-1.065 0.415-0.499 0.229-1.138 0.472-1.419 0.541-0.282 0.068-0.948 0.334-1.481 0.59s-1.173 0.517-1.421 0.579c-0.248 0.063-0.952 0.343-1.564 0.623s-1.177 0.51-1.257 0.51-0.676 0.221-1.325 0.492c-0.648 0.271-1.796 0.742-2.551 1.046-0.754 0.304-1.976 0.815-2.715 1.136-0.738 0.321-1.418 0.583-1.51 0.583-0.093 0-0.568 0.188-1.058 0.418-0.489 0.23-1.198 0.53-1.575 0.667s-1.534 0.613-2.572 1.058c-1.037 0.445-2.233 0.948-2.657 1.119-2.393 0.963-3.094 1.265-3.989 1.721-0.544 0.277-1.068 0.504-1.164 0.504-0.097 0-0.656 0.219-1.241 0.486-0.585 0.268-1.334 0.589-1.665 0.715-0.33 0.125-0.683 0.291-0.786 0.368-0.102 0.077-0.527 0.26-0.943 0.406s-1.22 0.485-1.785 0.754c-2.541 1.209-3.3 1.557-3.397 1.557-0.106 0-1.893 0.805-3.844 1.732-1.013 0.48-1.753 0.824-4.458 2.07-0.638 0.294-1.353 0.624-1.589 0.733s-0.737 0.359-1.114 0.556c-0.378 0.197-1.226 0.609-1.886 0.917-1.314 0.611-1.27 0.589-4.967 2.464-1.411 0.715-2.658 1.301-2.772 1.301-0.113 0-0.231 0.06-0.263 0.134-0.08 0.189-1.319 0.895-1.571 0.895-0.114 0-0.618 0.27-1.119 0.6s-1.003 0.6-1.115 0.6c-0.113 0-0.357 0.105-0.543 0.233s-0.878 0.525-1.538 0.882c-0.66 0.358-1.586 0.864-2.057 1.125-0.472 0.262-1.321 0.723-1.886 1.026-0.566 0.302-1.068 0.602-1.115 0.665-0.047 0.064-0.51 0.333-1.029 0.598-0.518 0.266-1.036 0.558-1.149 0.649-0.114 0.091-0.461 0.303-0.772 0.47-0.975 0.526-2.406 1.371-3.651 2.157-0.66 0.416-1.391 0.841-1.625 0.944s-0.465 0.25-0.515 0.325c-0.049 0.076-0.526 0.384-1.061 0.684-0.534 0.3-1.064 0.658-1.178 0.795-0.113 0.136-0.302 0.248-0.418 0.248s-0.565 0.27-0.997 0.6c-0.433 0.33-0.852 0.6-0.932 0.6s-0.412 0.229-0.739 0.508c-0.326 0.279-0.641 0.51-0.699 0.514s-0.647 0.374-1.309 0.822c-3.636 2.46-4.672 3.198-4.672 3.328 0 0.079-0.101 0.144-0.225 0.144-0.123 0-0.374 0.139-0.558 0.31-0.183 0.171-0.911 0.726-1.618 1.233-1.209 0.869-1.551 1.131-2.948 2.255-0.311 0.25-1.398 1.121-2.416 1.936-1.018 0.814-1.991 1.612-2.163 1.774-0.172 0.161-0.613 0.55-0.979 0.864-2.924 2.51-9.46 8.914-11.817 11.581-0.656 0.742-1.406 1.55-1.665 1.795s-0.471 0.519-0.471 0.609-0.251 0.405-0.558 0.7c-0.306 0.294-0.764 0.801-1.018 1.126-0.253 0.325-0.947 1.199-1.543 1.942-0.595 0.743-1.159 1.478-1.253 1.635-0.095 0.156-0.384 0.512-0.643 0.791-0.26 0.278-0.472 0.597-0.472 0.708s-0.065 0.228-0.145 0.259-0.444 0.482-0.809 1c-0.366 0.519-0.74 0.995-0.831 1.059s-0.286 0.344-0.434 0.624c-0.313 0.594-1.691 2.587-2.015 2.916-0.123 0.124-0.224 0.287-0.224 0.36 0 0.111-1.03 1.762-1.72 2.757-0.098 0.141-0.272 0.425-0.386 0.63-0.115 0.206-0.594 1.016-1.066 1.8-0.471 0.785-0.979 1.659-1.128 1.942-0.737 1.394-1.587 2.933-1.705 3.086-0.073 0.094-0.459 0.827-0.858 1.629-0.398 0.801-0.883 1.766-1.076 2.143s-0.401 0.801-0.462 0.943c-0.061 0.141-0.384 0.836-0.718 1.543s-0.842 1.826-1.128 2.486c-0.287 0.66-0.76 1.746-1.052 2.414s-0.531 1.29-0.531 1.382c0 0.093-0.202 0.588-0.45 1.101-0.247 0.513-0.621 1.434-0.831 2.047-0.625 1.828-0.961 2.759-1.484 4.115-0.272 0.707-0.494 1.401-0.492 1.543 1e-3 0.141-0.261 1.028-0.583 1.971-0.713 2.089-1.486 4.731-1.655 5.658-0.069 0.378-0.325 1.342-0.569 2.144-0.244 0.801-0.446 1.611-0.448 1.8-2e-3 0.188-0.243 1.269-0.535 2.4-0.291 1.132-0.59 2.52-0.662 3.086-0.073 0.566-0.331 2.071-0.573 3.344-0.647 3.401-1.328 8.172-1.503 10.533-0.085 1.137-0.267 3.264-0.404 4.726-0.971 10.294-0.627 24.092 0.881 35.319 0.247 1.839 0.507 3.922 0.577 4.629 0.071 0.708 0.328 2.289 0.572 3.515 0.243 1.226 0.443 2.412 0.443 2.635 2e-3 0.949 2.46 11.752 3.635 15.968 0.197 0.707 0.469 1.71 0.606 2.229 0.277 1.052 1.145 3.959 1.537 5.143 0.14 0.425 0.446 1.422 0.681 2.217 0.234 0.795 0.601 1.914 0.815 2.487 0.213 0.572 0.639 1.85 0.946 2.84s0.773 2.418 1.037 3.172c0.264 0.755 0.528 1.603 0.587 1.886s0.326 1.132 0.593 1.886c0.267 0.755 0.724 2.143 1.016 3.086 0.291 0.943 0.696 2.216 0.9 2.829 0.203 0.613 0.449 1.423 0.545 1.801 0.097 0.377 0.428 1.457 0.736 2.4s0.606 1.973 0.663 2.289c0.368 2.038 3.503 4.066 4.598 2.975 0.347-0.347 0.373-4.108 0.055-7.923-0.796-9.527-0.601-32.133 0.341-39.604 0.054-0.425 0.165-1.748 0.248-2.941 0.19-2.747 0.898-8.096 1.585-11.976 0.293-1.65 0.592-3.463 0.666-4.029s0.304-1.762 0.512-2.657c0.207-0.896 0.407-1.861 0.444-2.144 0.102-0.776 1.053-4.857 1.719-7.372 1.558-5.894 2.864-10.064 4.857-15.516 1.039-2.842 1.228-3.321 1.717-4.357 0.28-0.593 0.509-1.165 0.509-1.272s0.243-0.717 0.539-1.355 0.769-1.662 1.049-2.275c0.281-0.613 0.772-1.625 1.09-2.249 0.319-0.625 0.58-1.221 0.58-1.327 0-0.105 0.231-0.567 0.514-1.027 0.283-0.459 0.514-0.92 0.514-1.022 0-0.103 0.232-0.53 0.515-0.949s0.516-0.867 0.518-0.995c3e-3 -0.128 0.273-0.653 0.601-1.167 0.327-0.514 0.595-0.993 0.595-1.063s0.232-0.471 0.515-0.89c0.282-0.419 0.514-0.837 0.514-0.929 0-0.091 0.155-0.363 0.344-0.604 0.189-0.24 0.6-0.887 0.912-1.437s0.678-1.193 0.813-1.429 0.368-0.583 0.517-0.771c0.149-0.189 0.477-0.704 0.729-1.146 0.251-0.441 0.56-0.904 0.685-1.03 0.125-0.125 0.337-0.43 0.471-0.678 0.369-0.682 1.744-2.625 1.904-2.69 0.077-0.031 0.14-0.152 0.14-0.268s0.14-0.36 0.311-0.543c0.17-0.184 0.725-0.912 1.233-1.619 0.857-1.192 1.198-1.635 2.312-2.999 0.231-0.283 1.203-1.479 2.161-2.658s1.983-2.389 2.277-2.689c0.295-0.3 0.999-1.055 1.565-1.677 1.231-1.354 6.425-6.561 7.581-7.602 0.451-0.406 1.051-0.954 1.334-1.219 0.648-0.607 2.849-2.481 3.843-3.272 0.773-0.616 1.138-0.918 2.33-1.926 0.377-0.319 1.264-0.993 1.971-1.498 0.708-0.505 1.348-1.021 1.423-1.147 0.076-0.127 0.24-0.23 0.365-0.23s0.33-0.124 0.456-0.275c0.125-0.151 0.887-0.705 1.692-1.231 0.806-0.526 1.649-1.135 1.874-1.354s0.464-0.398 0.532-0.398c0.103 0 4.183-2.62 4.725-3.034 0.212-0.162 0.923-0.575 1.878-1.092 0.377-0.204 0.917-0.535 1.2-0.737 0.283-0.201 0.958-0.597 1.5-0.88s0.985-0.573 0.986-0.643c0-0.071 0.144-0.129 0.32-0.129s0.504-0.144 0.729-0.32c0.225-0.175 0.717-0.477 1.094-0.671 0.378-0.193 1.265-0.66 1.972-1.037 3.301-1.761 11.123-5.516 11.49-5.516 0.088 0 0.66-0.27 1.272-0.6 0.611-0.33 1.203-0.6 1.316-0.6s0.695-0.231 1.294-0.514 1.17-0.515 1.27-0.515c0.101 0 0.612-0.196 1.137-0.437 0.526-0.24 1.427-0.597 2.004-0.794 0.577-0.196 1.126-0.417 1.22-0.489 0.094-0.073 0.634-0.289 1.2-0.481 0.566-0.191 2.032-0.702 3.258-1.135 4-1.412 5.658-1.976 6.522-2.219 0.468-0.131 1.313-0.392 1.879-0.58s1.839-0.581 2.829-0.872c0.99-0.292 2.695-0.802 3.788-1.134 1.093-0.331 2.099-0.603 2.237-0.603 0.137 0 0.979-0.23 1.87-0.511 0.892-0.281 1.771-0.513 1.956-0.515 0.184-1e-3 1.149-0.222 2.143-0.489 0.994-0.268 3.004-0.765 4.466-1.105 1.461-0.339 3.66-0.853 4.886-1.142s2.383-0.524 2.572-0.522c0.188 1e-3 1.384-0.222 2.657-0.495 10.933-2.348 37.233-6.189 34.828-5.087-0.317 0.146-0.703 0.265-0.857 0.266-0.154 0-1.003 0.232-1.887 0.514-0.884 0.283-1.742 0.514-1.906 0.514-0.165 0-1.002 0.231-1.86 0.514-0.859 0.283-1.66 0.512-1.78 0.51-0.121-3e-3 -1.107 0.276-2.191 0.62-1.085 0.343-2.744 0.861-3.687 1.15-0.943 0.29-2.331 0.735-3.086 0.991-0.754 0.255-1.68 0.559-2.057 0.675s-0.997 0.35-1.378 0.52c-0.38 0.17-0.92 0.36-1.2 0.421s-0.663 0.178-0.851 0.259c-1.571 0.673-2.044 0.855-2.229 0.855-0.117 0-0.744 0.222-1.393 0.494-3.441 1.441-4.176 1.735-4.339 1.735-0.098 0-0.656 0.231-1.24 0.514s-1.127 0.514-1.206 0.514c-0.08 0-0.625 0.221-1.213 0.49-0.587 0.27-1.724 0.782-2.525 1.138-1.464 0.651-2.732 1.23-4.801 2.191-0.613 0.285-1.307 0.607-1.543 0.716s-0.756 0.368-1.157 0.575c-1.188 0.614-2.163 1.112-2.529 1.291-0.189 0.092-0.459 0.235-0.6 0.318-0.142 0.082-0.72 0.383-1.286 0.668s-1.569 0.819-2.229 1.186-1.657 0.911-2.216 1.208c-0.558 0.298-1.123 0.649-1.255 0.781s-0.313 0.24-0.402 0.24c-0.09 0-0.475 0.197-0.857 0.438-0.381 0.241-0.939 0.578-1.239 0.75-0.301 0.172-1.025 0.587-1.611 0.921-0.585 0.334-1.164 0.696-1.286 0.804-0.219 0.194-1.655 1.066-2.516 1.528-0.246 0.133-0.487 0.294-0.534 0.358s-0.549 0.41-1.114 0.768c-0.566 0.358-1.068 0.706-1.115 0.773s-0.283 0.231-0.525 0.363c-0.99 0.542-2.733 1.747-2.733 1.889 0 0.083-0.108 0.152-0.24 0.152-0.133 0-0.552 0.251-0.931 0.557-0.38 0.307-1.089 0.827-1.577 1.158-0.488 0.33-1.14 0.812-1.449 1.071-0.31 0.259-0.62 0.472-0.691 0.472-0.07 0-0.415 0.25-0.766 0.557-0.351 0.306-1 0.827-1.442 1.157-0.963 0.719-2.001 1.539-2.934 2.315-0.377 0.315-1.418 1.171-2.314 1.904-0.896 0.732-1.809 1.491-2.029 1.685-0.41 0.362-0.519 0.46-2.512 2.24-3.381 3.02-12.433 12.08-12.433 12.445 0 0.077-0.27 0.345-0.6 0.597s-0.6 0.55-0.6 0.663c0 0.112-0.232 0.375-0.515 0.584-0.282 0.21-0.514 0.46-0.514 0.558s-0.231 0.372-0.514 0.61-0.515 0.542-0.515 0.675-0.062 0.242-0.137 0.242c-0.076 0-0.711 0.714-1.411 1.586s-1.371 1.648-1.491 1.723-0.219 0.23-0.22 0.343-0.271 0.467-0.6 0.787-0.598 0.686-0.598 0.814c0 0.129-0.064 0.233-0.141 0.233-0.121 0-1.506 1.768-2.003 2.556-0.094 0.15-0.364 0.514-0.6 0.809-0.235 0.296-0.698 0.933-1.028 1.417-0.33 0.483-0.85 1.206-1.156 1.606s-0.556 0.818-0.557 0.928-0.071 0.226-0.156 0.257c-0.153 0.057-1.903 2.627-1.903 2.795 0 0.048-0.251 0.425-0.558 0.838-0.306 0.412-0.711 1.005-0.9 1.318-0.973 1.613-1.313 2.194-1.641 2.8-0.197 0.365-0.584 0.975-0.859 1.354-0.275 0.38-0.5 0.762-0.5 0.848 0 0.087-0.214 0.481-0.476 0.875s-0.612 0.986-0.777 1.317c-0.166 0.33-0.427 0.831-0.581 1.114-0.662 1.219-2.888 5.525-3.323 6.429-1.404 2.919-3.416 7.402-3.416 7.612 0 0.069-0.204 0.565-0.453 1.101-0.432 0.928-0.846 1.987-1.52 3.889-0.167 0.472-0.524 1.388-0.794 2.037s-0.49 1.276-0.49 1.395c0 0.118-0.26 0.938-0.578 1.821-0.317 0.883-0.81 2.377-1.096 3.32s-0.73 2.409-0.987 3.258c-0.257 0.848-0.537 1.958-0.623 2.465-0.087 0.507-0.22 1.047-0.297 1.2-0.308 0.614-1.737 7.168-2.398 10.994-2.271 13.158-2.733 29.5-1.137 40.291 0.244 1.65 0.481 3.386 0.528 3.858 0.122 1.248 1.06 6.226 1.567 8.315 0.239 0.991 0.499 2.17 0.576 2.621 0.138 0.813 0.741 2.988 1.696 6.124 0.273 0.895 0.574 1.898 0.668 2.228 0.162 0.571 1.015 2.975 1.971 5.558 0.943 2.547 1.957 4.204 3.545 5.793 0.953 0.954 2.924 2.365 3.304 2.366 0.075 0 0.476 0.154 0.889 0.342 1.648 0.751 2.596 0.888 6.774 0.978 4.914 0.107 17.361-0.211 21.346-0.545 7.447-0.624 9.457-0.809 12.173-1.124 1.603-0.185 3.647-0.417 4.543-0.515 0.896-0.097 3.134-0.419 4.972-0.714 1.839-0.295 3.845-0.589 4.458-0.653 1.228-0.128 4.771-0.775 8.498-1.553 1.327-0.276 2.558-0.503 2.737-0.503 0.358 0 4.399-0.947 7.383-1.73 1.045-0.274 2.048-0.5 2.229-0.502 0.18-2e-3 0.983-0.203 1.785-0.447s1.766-0.499 2.143-0.567 1.496-0.375 2.486-0.682c0.99-0.308 2.572-0.787 3.515-1.066s2.293-0.705 3-0.946c0.708-0.241 1.634-0.54 2.058-0.664 1.435-0.419 5.4-1.836 5.564-1.989 0.089-0.083 0.303-0.151 0.475-0.151s0.909-0.24 1.637-0.533c1.529-0.615 3.248-1.31 4.84-1.957 0.613-0.249 1.462-0.589 1.886-0.756 0.773-0.303 1.234-0.506 3.943-1.73 4.029-1.82 7.375-3.453 10.03-4.892 0.755-0.409 1.758-0.943 2.229-1.186 0.472-0.243 1.359-0.745 1.972-1.116 0.613-0.37 1.294-0.754 1.513-0.853s0.735-0.411 1.145-0.694c0.411-0.282 0.816-0.513 0.9-0.513s0.456-0.23 0.826-0.51c0.371-0.28 0.737-0.512 0.814-0.514 0.078-3e-3 0.477-0.237 0.889-0.519 0.411-0.283 0.82-0.515 0.91-0.515 0.089 0 0.258-0.115 0.375-0.256 0.116-0.141 0.628-0.494 1.136-0.784 0.508-0.291 1.02-0.626 1.138-0.744 0.119-0.118 0.418-0.324 0.666-0.458 0.565-0.306 2.556-1.693 2.859-1.992 0.125-0.123 0.293-0.224 0.374-0.224s0.254-0.106 0.384-0.237c0.131-0.131 0.805-0.63 1.5-1.11 0.694-0.479 1.529-1.086 1.855-1.348s0.833-0.671 1.127-0.908 1.036-0.81 1.649-1.273 1.629-1.291 2.257-1.84c0.629-0.55 1.195-0.999 1.259-0.999 0.063 0 0.243-0.145 0.4-0.323 0.156-0.178 1.288-1.192 2.513-2.254 3.964-3.433 8.527-7.995 12.084-12.082 1.067-1.226 2.083-2.383 2.258-2.572 0.998-1.075 4.127-5.009 4.805-6.042 0.158-0.24 0.359-0.484 0.447-0.541s0.608-0.76 1.156-1.561c0.548-0.802 1.138-1.595 1.311-1.764s0.314-0.41 0.314-0.536c0-0.127 0.129-0.336 0.286-0.465 0.157-0.13 0.557-0.66 0.889-1.178 0.332-0.519 0.705-1.045 0.829-1.17s0.225-0.298 0.225-0.384c0-0.087 0.251-0.495 0.557-0.908 0.514-0.691 0.803-1.136 1.507-2.323 0.145-0.245 0.473-0.771 0.729-1.17 0.255-0.399 0.465-0.777 0.465-0.841s0.182-0.355 0.404-0.646c0.222-0.292 0.612-0.917 0.867-1.388 0.254-0.472 0.73-1.32 1.057-1.886s0.752-1.338 0.945-1.715c0.194-0.377 0.611-1.149 0.927-1.714 0.764-1.366 4.145-8.191 4.969-10.03 0.359-0.802 0.873-1.922 1.142-2.489 0.27-0.568 0.49-1.112 0.49-1.211 0-0.098 0.27-0.727 0.6-1.397s0.6-1.3 0.6-1.401 0.232-0.661 0.515-1.245 0.514-1.166 0.514-1.293 0.231-0.741 0.514-1.365 0.515-1.229 0.515-1.346c0-0.194 0.333-1.038 0.957-2.424 0.134-0.297 0.243-0.683 0.244-0.857 1e-3 -0.175 0.102-0.51 0.225-0.746s0.363-0.853 0.535-1.372c0.837-2.534 1.317-4.024 1.876-5.829 0.336-1.085 0.844-2.725 1.13-3.645 0.286-0.921 0.521-1.808 0.524-1.972 2e-3 -0.164 0.233-0.992 0.514-1.841 0.281-0.848 0.556-1.812 0.612-2.143 0.056-0.33 0.319-1.449 0.586-2.487 0.95-3.699 1.256-4.992 1.543-6.515 0.161-0.848 0.488-2.43 0.727-3.515 0.777-3.513 2.317-12.347 2.529-14.504 0.082-0.84 0.35-2.799 0.595-4.355 0.244-1.556 0.516-3.717 0.603-4.801s0.319-3.361 0.515-5.058 0.43-4.436 0.52-6.086c0.089-1.651 0.276-4.698 0.415-6.773 0.647-9.665 0.783-27.698 0.279-37.034-0.725-13.436-0.927-16.549-1.471-22.632-0.135-1.508-0.329-3.746-0.431-4.972s-0.374-3.733-0.605-5.572c-0.23-1.839-0.42-3.69-0.423-4.115-2e-3 -0.424-0.199-2.16-0.437-3.857-0.239-1.698-0.472-3.55-0.518-4.115-0.119-1.457-1.002-7.885-1.707-12.431-0.329-2.121-0.598-4.089-0.597-4.372s-0.229-1.749-0.511-3.257c-0.281-1.509-0.513-3.014-0.516-3.344s-0.234-1.757-0.515-3.172c-0.281-1.414-0.511-2.801-0.511-3.082 0-0.28-0.274-1.978-0.608-3.772s-0.837-4.573-1.119-6.176c-0.281-1.603-0.667-3.725-0.857-4.715s-0.463-2.456-0.607-3.258c-0.143-0.801-0.422-2.267-0.619-3.257-0.198-0.99-0.463-2.375-0.59-3.077-0.535-2.959-2.403-4.651-4.548-4.119m-287.27 5.173c-0.278 0.594-0.555 1.311-0.616 1.594-0.106 0.494-0.103 0.498 0.082 0.086 0.105-0.236 0.413-0.922 0.684-1.526 0.271-0.603 0.461-1.128 0.424-1.166-0.038-0.037-0.296 0.418-0.574 1.012m-1.245 2.956c-0.191 0.445-0.348 0.868-0.348 0.939s-0.27 0.683-0.6 1.362c-0.33 0.678-0.6 1.32-0.6 1.426s-0.231 0.683-0.514 1.282c-0.283 0.598-0.514 1.167-0.514 1.263 0 0.095-0.232 0.608-0.515 1.138s-0.514 1.067-0.514 1.194c0 0.126-0.262 0.791-0.581 1.476-0.32 0.685-0.83 1.824-1.134 2.532-0.305 0.707-0.741 1.7-0.971 2.206-0.229 0.506-0.386 0.951-0.349 0.988 0.062 0.062 0.533-0.942 1.578-3.366 0.224-0.518 0.725-1.676 1.114-2.572 0.389-0.895 0.888-2.053 1.108-2.571 0.22-0.519 0.64-1.49 0.932-2.157 0.293-0.668 0.532-1.282 0.532-1.364 0-0.083 0.277-0.771 0.617-1.53 0.339-0.758 0.767-1.716 0.951-2.128 0.183-0.413 0.293-0.79 0.244-0.839s-0.245 0.275-0.436 0.721m-7.438 17.563c-0.364 0.813-0.895 2.018-1.181 2.678s-0.741 1.681-1.011 2.268c-0.27 0.588-0.49 1.146-0.49 1.241s-0.228 0.617-0.506 1.161c-0.599 1.172-1.066 2.303-0.983 2.386 0.071 0.07 0.226-0.247 1.062-2.169 0.348-0.802 0.851-1.959 1.118-2.572 0.266-0.613 0.768-1.77 1.114-2.572 0.347-0.801 0.868-1.977 1.159-2.612 0.29-0.634 0.494-1.184 0.453-1.22-0.041-0.037-0.372 0.598-0.735 1.411m-4.546 10.266c-0.235 0.439-0.706 1.816-0.643 1.879 0.027 0.027 0.255-0.426 0.506-1.008 0.43-0.996 0.524-1.593 0.137-0.871m-1.159 2.742c-0.572 1.343-1.492 3.425-1.95 4.415-0.262 0.566-0.568 1.317-0.679 1.67-0.112 0.352-0.269 0.681-0.349 0.731-0.081 0.049-0.238 0.378-0.349 0.731-0.112 0.352-0.469 1.204-0.795 1.893s-0.569 1.325-0.539 1.414c0.05 0.15 0.248-0.273 1.808-3.867 0.327-0.754 0.753-1.719 0.947-2.143 0.485-1.064 1.451-3.316 1.932-4.501 0.438-1.08 0.415-1.379-0.026-0.343m-5.022 11.505c-0.28 0.523-0.222 0.669 0.09 0.224 0.151-0.216 0.234-0.432 0.185-0.481-0.049-0.05-0.173 0.066-0.275 0.257m-0.538 1.161c-0.106 0.271-0.422 0.985-0.7 1.585-0.279 0.601-0.469 1.13-0.423 1.176s0.196-0.175 0.333-0.492c0.137-0.316 0.454-1.029 0.703-1.583 0.25-0.554 0.415-1.046 0.368-1.093-0.048-0.048-0.174 0.135-0.281 0.407m169.06 4.164c-0.613 0.269-1.809 0.778-2.658 1.131-5.009 2.086-9.361 4.022-9.047 4.026 0.116 1e-3 0.714-0.229 1.329-0.512 0.614-0.283 1.62-0.746 2.235-1.029s1.195-0.514 1.289-0.514c0.095 0 0.653-0.228 1.24-0.505 0.998-0.472 2.233-0.992 4.069-1.712 0.424-0.167 1.118-0.459 1.543-0.649 0.424-0.189 0.964-0.427 1.2-0.528s0.313-0.186 0.171-0.19c-0.141-4e-3 -0.758 0.213-1.371 0.482m-171.01 0.401c-0.133 0.307-0.517 1.164-0.855 1.904-0.338 0.741-0.614 1.42-0.614 1.51s-0.232 0.63-0.514 1.2c-0.283 0.57-0.515 1.104-0.515 1.185 0 0.138-0.698 1.747-1.055 2.431-0.087 0.165-0.096 0.298-0.022 0.296 0.14-5e-3 0.369-0.506 2.12-4.625 1.401-3.297 1.862-4.458 1.771-4.458-0.042 0-0.184 0.251-0.316 0.557m72.621 2.623c-0.9 0.984-2.257 2.715-5.571 7.102-1.03 1.364-1.959 2.568-2.063 2.676-0.189 0.195-2.188 2.875-2.676 3.586-0.141 0.207-0.51 0.716-0.818 1.132-1.183 1.59-3.076 4.209-3.945 5.456-0.498 0.715-1.462 2.099-2.143 3.076s-1.392 2.019-1.58 2.316c-0.189 0.298-0.768 1.157-1.286 1.911-0.519 0.753-0.982 1.447-1.03 1.541s-0.472 0.739-0.943 1.433-1.082 1.62-1.357 2.057c-0.276 0.438-1.051 1.645-1.722 2.682-1.187 1.834-2.893 4.603-3.625 5.884-0.198 0.347-0.596 1.017-0.883 1.489-0.734 1.203-2.944 5.007-3.389 5.832-0.205 0.378-0.72 1.304-1.145 2.057-2.362 4.187-8.548 16.663-8.536 17.217 4e-3 0.187 0.787-1.28 1.092-2.046 0.731-1.834 4.647-9.671 6.571-13.151 0.302-0.546 0.689-1.264 0.859-1.594 0.259-0.5 1.533-2.768 2.616-4.656 0.144-0.251 0.484-0.869 0.755-1.372 0.272-0.504 0.551-0.954 0.62-1.001 0.07-0.047 0.3-0.433 0.512-0.857 0.212-0.425 0.569-1.018 0.794-1.318s0.409-0.66 0.409-0.8 0.065-0.28 0.143-0.311c0.079-0.032 0.406-0.495 0.729-1.029 2.164-3.588 2.66-4.391 2.946-4.772 0.278-0.37 1.019-1.489 1.583-2.392 1.133-1.811 1.701-2.681 1.8-2.752 0.065-0.047 0.227-0.286 0.36-0.53 0.204-0.377 1.269-1.978 2.212-3.327 0.142-0.202 0.538-0.786 0.882-1.298 0.343-0.512 0.787-1.117 0.986-1.343 0.198-0.227 0.361-0.487 0.361-0.578s0.212-0.418 0.472-0.728c0.259-0.309 0.741-0.964 1.071-1.454 0.33-0.491 0.812-1.145 1.072-1.455 0.259-0.309 0.471-0.645 0.471-0.747s0.141-0.323 0.313-0.492 0.766-0.962 1.32-1.764c0.555-0.802 1.064-1.497 1.132-1.545s0.64-0.82 1.272-1.715c0.631-0.894 1.216-1.652 1.299-1.684 0.083-0.031 0.151-0.137 0.151-0.236s0.251-0.469 0.557-0.823 0.982-1.228 1.5-1.942c0.519-0.714 1.001-1.301 1.072-1.306 0.071-4e-3 0.128-0.095 0.128-0.201s0.274-0.512 0.609-0.9c0.737-0.855 0.665-0.765 2.066-2.621 0.623-0.827 1.244-1.584 1.38-1.683 0.135-0.099 0.339-0.366 0.453-0.593 0.114-0.226 0.296-0.441 0.404-0.477 0.216-0.071-1.056 2.452-1.319 2.614-0.09 0.056-0.163 0.232-0.163 0.392 1e-3 0.34 0.339-0.189 1.469-2.296 0.957-1.785 0.905-1.924-0.247-0.664m85.152 2.621c-0.539 0.251-0.983 0.514-0.986 0.583-5e-3 0.135 0.958-0.276 1.795-0.766 0.754-0.441 0.32-0.343-0.809 0.183m-2.62 1.151c-0.66 0.318-1.079 0.582-0.931 0.585 0.24 6e-3 2.134-0.882 2.357-1.104 0.208-0.208-0.304-0.022-1.426 0.519m-84.334 0.122c-0.177 0.306-0.495 0.864-0.705 1.242-0.211 0.377-0.625 1.11-0.921 1.628-0.295 0.519-0.776 1.4-1.069 1.959s-0.64 1.123-0.772 1.255-0.24 0.334-0.24 0.45c0 0.115-0.268 0.631-0.596 1.145-0.327 0.514-0.597 1.028-0.6 1.141-2e-3 0.113-0.236 0.548-0.518 0.968-0.283 0.419-0.515 0.868-0.515 0.997 0 0.13-0.179 0.504-0.398 0.833-0.584 0.875-5.071 9.964-6.897 13.97-0.429 0.943-0.888 1.91-1.018 2.15-0.258 0.476-0.783 1.927-0.719 1.991 0.022 0.022 0.409-0.785 0.86-1.793 0.451-1.009 1.041-2.297 1.31-2.862 0.269-0.566 0.815-1.724 1.213-2.572 1.871-3.993 5.14-10.463 6.931-13.716 0.364-0.661 0.88-1.606 1.147-2.101 1.173-2.173 1.502-2.765 2.115-3.815 0.358-0.613 0.88-1.538 1.16-2.057s0.587-1.039 0.681-1.157c0.095-0.118 0.105-0.214 0.023-0.214-0.082 1e-3 -0.295 0.252-0.472 0.558m82.105 0.889c-0.471 0.223-2.67 1.235-4.886 2.249-5.008 2.291-10.274 4.859-9.983 4.869 0.12 4e-3 1.161-0.459 2.314-1.028 2.892-1.427 4.267-2.089 5.869-2.823 2.277-1.044 3.129-1.437 4.072-1.879 0.495-0.233 1.498-0.691 2.229-1.018 0.73-0.327 1.328-0.639 1.328-0.692 0-0.129 0.034-0.141-0.943 0.322m-157.11 2.413c-0.296 0.62-0.539 1.203-0.539 1.296 0 0.094-0.198 0.561-0.44 1.038-0.242 0.478-0.397 0.912-0.345 0.964s0.221-0.206 0.374-0.574c0.154-0.368 0.577-1.36 0.941-2.203 0.777-1.804 0.783-2.141 9e-3 -0.521m-1.554 3.688c-7e-3 0.144-0.283 0.826-0.614 1.514-0.33 0.689-0.594 1.381-0.588 1.539 0.013 0.321-0.028 0.401 0.847-1.654 0.294-0.689 0.497-1.345 0.452-1.457-0.051-0.125-0.089-0.102-0.097 0.058m142.46 1.546c-0.424 0.275-0.865 0.502-0.978 0.503-0.114 2e-3 -0.587 0.228-1.051 0.502-0.465 0.273-0.95 0.524-1.079 0.557-0.447 0.113-4.093 2.103-4.093 2.234 0 0.072 0.389-0.099 0.865-0.379s0.962-0.51 1.08-0.51 0.289-0.066 0.378-0.148c0.15-0.135 2.912-1.639 3.506-1.909 0.698-0.316 2.163-1.094 2.306-1.224 0.36-0.326-0.199-0.102-0.934 0.374m-144.16 2.598c-0.41 0.856-0.897 2.242-0.817 2.322 0.03 0.031 0.148-0.198 0.262-0.507 0.114-0.31 0.398-0.977 0.632-1.484 0.233-0.506 0.39-0.953 0.349-0.994-0.04-0.041-0.232 0.257-0.426 0.663m136.19 1.443c-0.189 0.146-0.768 0.479-1.286 0.74-0.519 0.262-1.368 0.689-1.886 0.949-0.519 0.261-1.136 0.608-1.372 0.772-0.236 0.163-1.084 0.644-1.886 1.069s-2.422 1.335-3.6 2.022c-2.666 1.553-4.041 2.351-4.753 2.759-0.304 0.174-0.883 0.525-1.286 0.781-0.404 0.255-1.12 0.709-1.591 1.008-0.472 0.299-1.192 0.754-1.602 1.011-0.409 0.258-0.707 0.505-0.662 0.551 0.046 0.045 0.419-0.141 0.831-0.414 1.751-1.163 2.694-1.75 3.662-2.282 0.566-0.31 1.26-0.734 1.543-0.941 0.283-0.206 0.823-0.544 1.2-0.749 1.733-0.943 2.26-1.248 2.677-1.548 0.247-0.178 0.71-0.443 1.029-0.59s1.043-0.539 1.609-0.87c0.566-0.332 1.563-0.892 2.217-1.245 0.653-0.353 1.618-0.886 2.143-1.185s1.364-0.74 1.864-0.98c0.908-0.437 1.93-1.14 1.643-1.129-0.083 3e-3 -0.306 0.125-0.494 0.271m-137.5 1.697c-0.389 0.932-0.32 1.16 0.083 0.273 0.188-0.415 0.306-0.79 0.263-0.833-0.043-0.044-0.199 0.209-0.346 0.56m-0.925 2.303c-0.298 0.656-0.542 1.254-0.542 1.329 1e-3 0.128-0.285 0.841-1.56 3.897-0.273 0.652-0.464 1.218-0.425 1.257 0.084 0.084 0.696-1.246 1.125-2.444 0.169-0.472 0.499-1.32 0.734-1.886 1.075-2.596 1.321-3.234 1.268-3.287-0.032-0.032-0.301 0.479-0.6 1.134m-2.83 7.254c-0.382 0.908-0.905 2.234-1.098 2.786-0.099 0.283-0.335 0.9-0.524 1.371-0.414 1.034-1.28 3.376-1.548 4.19-0.233 0.705-0.148 0.913 0.094 0.231 0.093-0.263 0.307-0.863 0.474-1.335 0.167-0.471 0.556-1.513 0.864-2.314 0.307-0.802 0.656-1.728 0.775-2.058s0.392-1.024 0.608-1.543c0.593-1.426 0.756-1.886 0.669-1.886-0.043 0-0.185 0.251-0.314 0.558m119.22 1.601c-0.896 0.602-2.285 1.539-3.086 2.082-0.802 0.544-1.584 1.066-1.737 1.16-0.154 0.094-0.761 0.519-1.349 0.943-0.587 0.424-1.245 0.89-1.462 1.035-0.217 0.144-0.616 0.432-0.887 0.64s-1.353 1.015-2.403 1.795c-2.947 2.186-5.332 4.047-6.65 5.19-0.66 0.573-1.933 1.645-2.829 2.383-1.495 1.232-3.306 2.806-4.455 3.873-0.254 0.236-1.226 1.119-2.161 1.962-2.357 2.126-11.783 11.587-11.663 11.707 0.054 0.054 1.117-0.974 2.363-2.285 2.082-2.19 6.483-6.528 8.941-8.812 0.558-0.518 1.303-1.213 1.656-1.543 1.931-1.805 7.425-6.547 8.145-7.029 0.212-0.142 0.53-0.393 0.708-0.558 0.644-0.598 1.727-1.466 3.324-2.664 0.896-0.671 1.822-1.377 2.057-1.568 0.768-0.621 3.293-2.492 3.621-2.684 0.176-0.102 0.456-0.304 0.622-0.447 0.273-0.236 1.024-0.756 4.721-3.267 0.659-0.448 1.256-0.814 1.326-0.814s0.226-0.119 0.347-0.265 0.678-0.534 1.238-0.862c0.977-0.572 1.678-1.122 1.382-1.084-0.077 0.01-0.873 0.511-1.769 1.112m-52.281 7.287c-0.504 1.043-0.426 1.266 0.093 0.268 0.238-0.458 0.394-0.87 0.347-0.917s-0.245 0.245-0.44 0.649m-70.646 0.743c-0.255 0.67-0.205 0.776 0.101 0.212 0.145-0.268 0.221-0.529 0.169-0.581s-0.173 0.114-0.27 0.369m69.639 1.727c-0.302 0.701-0.548 1.347-0.548 1.436 0 0.088-0.232 0.677-0.515 1.308-0.283 0.63-0.508 1.274-0.501 1.43 0.011 0.232 0.03 0.237 0.1 0.027 0.112-0.331 0.937-2.382 1.624-4.035 0.295-0.711 0.503-1.326 0.462-1.367s-0.321 0.499-0.622 1.201m-70.083-0.471c-0.056 0.259-0.296 0.921-0.533 1.47-0.237 0.55-0.397 1.033-0.356 1.074 0.089 0.089 0.924-1.874 1.082-2.544 0.062-0.26 0.066-0.472 0.011-0.472-0.056 0-0.148 0.212-0.204 0.472m-1.091 2.996c-7e-3 0.162-0.248 0.886-0.534 1.607-0.287 0.722-0.491 1.343-0.455 1.379 0.127 0.128 1.185-2.825 1.094-3.053-0.062-0.156-0.095-0.134-0.105 0.067m68.931 3.284c-0.294 0.705-0.532 1.423-0.529 1.595 3e-3 0.171 0.269-0.38 0.591-1.226 0.715-1.881 0.673-2.134-0.062-0.369m-70.163 0.406c-0.688 1.782-0.97 2.604-1.07 3.117-0.163 0.834 0.023 0.563 0.297-0.434 0.128-0.461 0.434-1.36 0.682-1.997 0.247-0.636 0.41-1.157 0.361-1.157s-0.17 0.212-0.27 0.471m69.23 2.14c-0.447 1.072-0.464 1.436-0.022 0.496 0.238-0.507 0.396-0.959 0.351-1.005-0.045-0.045-0.193 0.184-0.329 0.509m-70.901 2.63c-0.202 0.529-0.368 1.064-0.368 1.189s-0.24 0.856-0.533 1.623c-0.293 0.768-0.497 1.432-0.453 1.476 0.071 0.072 0.365-0.735 1.501-4.115 0.438-1.305 0.334-1.429-0.147-0.173m70.113-0.226c-0.083 0.212-0.316 0.802-0.518 1.312-0.202 0.509-0.345 1.029-0.318 1.156 0.028 0.127 0.293-0.463 0.59-1.311 0.472-1.35 0.654-2.21 0.246-1.157m-1.179 3.506c-0.254 0.827-0.131 0.95 0.137 0.137 0.113-0.342 0.172-0.656 0.131-0.697-0.04-0.041-0.161 0.211-0.268 0.56m-0.605 1.671c-0.146 0.43-0.21 0.781-0.141 0.781 0.128 0 0.559-1.41 0.461-1.508-0.03-0.03-0.174 0.298-0.32 0.727m-69.946 0.217c-0.051 0.169-0.257 0.759-0.459 1.313-0.201 0.553-0.335 1.037-0.296 1.076s0.279-0.518 0.535-1.237c0.255-0.719 0.43-1.342 0.388-1.383-0.041-0.042-0.117 0.062-0.168 0.231m68.993 2.981c-0.105 0.302-0.186 0.634-0.179 0.738 6e-3 0.103 0.123-0.114 0.258-0.483 0.135-0.368 0.216-0.7 0.179-0.737s-0.153 0.18-0.258 0.482m-69.953-0.066c-0.011 0.209-0.181 0.812-0.379 1.341-0.198 0.528-0.322 0.999-0.275 1.046 0.141 0.141 0.838-2.138 0.753-2.464-0.061-0.234-0.083-0.217-0.099 0.077m69.469 1.867c-0.391 1.583-0.398 1.696-0.048 0.754 0.193-0.519 0.33-1.089 0.303-1.268-0.026-0.179-0.141 0.052-0.255 0.514m-70.432 1.097c-0.064 0.203-0.078 0.407-0.031 0.454 0.047 0.048 0.138-0.08 0.203-0.283 0.064-0.202 0.078-0.407 0.031-0.454s-0.138 0.08-0.203 0.283m-0.237 1.217c-0.105 0.302-0.186 0.634-0.179 0.737 6e-3 0.104 0.123-0.113 0.258-0.482s0.215-0.7 0.179-0.737c-0.037-0.037-0.153 0.18-0.258 0.482m69.86 0.424c-0.064 0.251-0.082 0.49-0.042 0.53 0.041 0.041 0.125-0.132 0.189-0.383 0.063-0.251 0.081-0.49 0.041-0.53-0.041-0.041-0.125 0.132-0.188 0.383m21.352 0.717c-0.585 0.636-1.243 1.35-1.464 1.585-0.394 0.422-3.471 4.158-4.943 6.001-1.245 1.559-2.204 2.915-2.061 2.915 0.073-1e-3 0.404-0.397 0.733-0.88 0.33-0.484 0.772-1.043 0.983-1.243s0.385-0.446 0.386-0.546c2e-3 -0.101 0.177-0.341 0.389-0.534 0.212-0.192 0.733-0.802 1.158-1.354 0.887-1.156 4.885-5.861 5.305-6.245 0.354-0.323 0.763-0.857 0.657-0.857-0.044 0-0.558 0.521-1.143 1.158m-21.695 0.998c-0.063 0.251-0.082 0.49-0.042 0.53 0.041 0.04 0.126-0.132 0.189-0.383 0.063-0.252 0.081-0.49 0.041-0.531-0.041-0.04-0.125 0.132-0.188 0.384m-0.343 1.2c-0.063 0.251-0.082 0.49-0.041 0.53 0.04 0.041 0.125-0.132 0.188-0.383 0.063-0.252 0.081-0.49 0.041-0.531-0.041-0.04-0.125 0.133-0.188 0.384m-70.378 0.946c-0.116 0.387-0.18 0.735-0.141 0.774 0.039 0.038 0.165-0.247 0.281-0.634s0.179-0.735 0.141-0.773c-0.039-0.039-0.165 0.246-0.281 0.633m70.035 0.254c-0.063 0.251-0.082 0.49-0.041 0.53 0.04 0.041 0.125-0.132 0.188-0.383s0.081-0.49 0.041-0.53c-0.04-0.041-0.125 0.132-0.188 0.383m-14.658 0.781c-8e-3 0.059-0.206 0.541-0.44 1.071-0.235 0.531-0.39 0.965-0.346 0.965 0.166 0 0.96-1.75 0.881-1.943-0.045-0.11-0.088-0.152-0.095-0.093m14.303 1.178c-0.065 0.297-0.083 0.575-0.039 0.619 0.043 0.043 0.128-0.167 0.189-0.469 0.143-0.714 4e-3 -0.853-0.15-0.15m-71.126 3.059c-0.251 0.835-0.452 1.626-0.446 1.758 5e-3 0.133 0.24-0.521 0.522-1.452 0.281-0.931 0.482-1.722 0.445-1.759-0.036-0.036-0.271 0.618-0.521 1.453m70.611-1.001c-0.065 0.296-0.082 0.574-0.039 0.618 0.044 0.044 0.129-0.167 0.189-0.468 0.143-0.715 5e-3 -0.853-0.15-0.15m-15.484 0.78c-0.516 1.063-0.459 1.212 0.073 0.189 0.238-0.457 0.403-0.861 0.368-0.896-0.036-0.036-0.234 0.282-0.441 0.707m-1.005 2.437c-0.697 1.7-0.836 2.176-0.589 2.024 0.105-0.065 0.19-0.262 0.19-0.439 0-0.253 0.78-2.149 1.147-2.788 0.04-0.07 0.011-0.127-0.065-0.126s-0.384 0.599-0.683 1.329m30.534 0.696c-0.438 0.526-1.082 1.429-2.576 3.611-0.727 1.061-2.862 4.386-3.315 5.163-0.303 0.519-0.853 1.445-1.223 2.058s-0.857 1.461-1.082 1.886c-0.225 0.424-0.659 1.234-0.964 1.8-1.444 2.673-4.171 8.487-4.042 8.616 0.045 0.044 0.245-0.295 0.445-0.753 1.238-2.835 4.173-8.741 4.554-9.162 0.135-0.149 0.245-0.369 0.245-0.488 0-0.12 0.144-0.422 0.32-0.673 0.177-0.25 0.492-0.793 0.702-1.207 0.21-0.415 0.454-0.839 0.543-0.943 0.305-0.357 1.338-2.076 1.532-2.548 0.107-0.259 0.249-0.472 0.317-0.472s0.303-0.328 0.523-0.728c0.219-0.401 0.6-0.998 0.845-1.326 0.246-0.329 0.524-0.721 0.619-0.872 0.525-0.841 1.467-2.186 1.781-2.543 0.199-0.227 0.362-0.475 0.362-0.552 0-0.076 0.242-0.414 0.537-0.751 0.295-0.336 0.507-0.642 0.47-0.679s-0.304 0.216-0.593 0.563m-85.712 1.402c-0.065 0.296-0.083 0.575-0.039 0.618 0.044 0.044 0.129-0.167 0.189-0.468 0.143-0.715 4e-3 -0.853-0.15-0.15m53.945 1.012c-0.201 0.469-0.366 0.923-0.366 1.011 0 0.087-0.232 0.722-0.516 1.409-0.283 0.688-0.488 1.279-0.454 1.313 0.077 0.077 1.141-2.437 1.141-2.693 0-0.102 0.16-0.535 0.355-0.964 0.195-0.428 0.322-0.812 0.281-0.853s-0.239 0.309-0.441 0.777m-54.288 0.36c-0.065 0.296-0.083 0.574-0.039 0.618 0.044 0.043 0.129-0.167 0.189-0.468 0.143-0.715 4e-3 -0.854-0.15-0.15m52.302 5.152c-0.261 0.666-0.44 1.246-0.396 1.289 0.043 0.044 0.283-0.475 0.533-1.152 0.591-1.601 0.48-1.711-0.137-0.137m-0.992 2.962c-0.257 0.758-0.44 1.407-0.406 1.441 0.098 0.097 1.005-2.482 0.936-2.66-0.034-0.088-0.272 0.461-0.53 1.219m-0.954 3.15c-0.254 0.827-0.131 0.949 0.137 0.137 0.113-0.343 0.172-0.656 0.132-0.697-0.041-0.041-0.162 0.211-0.269 0.56m19.037 0.909c0 0.33 0.035 0.465 0.078 0.3s0.043-0.435 0-0.6-0.078-0.03-0.078 0.3m-0.165 2.057c0 0.424 0.033 0.598 0.074 0.386s0.041-0.559 0-0.772c-0.041-0.212-0.074-0.038-0.074 0.386m-0.163 2.915c0 0.613 0.031 0.864 0.069 0.557 0.038-0.306 0.038-0.808 0-1.114-0.038-0.307-0.069-0.056-0.069 0.557m-20.36-0.417c-0.063 0.252-0.082 0.49-0.041 0.531 0.04 0.04 0.125-0.132 0.188-0.384 0.063-0.251 0.082-0.49 0.041-0.53-0.04-0.04-0.125 0.132-0.188 0.383m-0.25 1.092c-0.011 0.229-0.18 0.989-0.376 1.687s-0.323 1.302-0.282 1.343c0.134 0.133 0.847-2.79 0.762-3.122-0.066-0.258-0.088-0.239-0.104 0.092m24.062 3.14c-0.064 0.212-0.366 1.003-0.671 1.757-0.659 1.629-1.132 3-1.036 3 0.11 0 0.772-1.56 0.772-1.817 0-0.127 0.22-0.716 0.488-1.307 0.488-1.073 0.788-2.019 0.641-2.019-0.043 0-0.13 0.173-0.194 0.386m-75.992 0.3c0 0.33 0.035 0.465 0.078 0.3 0.044-0.165 0.044-0.435 0-0.6-0.043-0.165-0.078-0.03-0.078 0.3m50.922 1.028c0 0.33 0.035 0.465 0.078 0.3s0.043-0.435 0-0.6-0.078-0.03-0.078 0.3m-51.265 2.058c0 0.33 0.035 0.465 0.079 0.3 0.043-0.165 0.043-0.435 0-0.6-0.044-0.165-0.079-0.03-0.079 0.3m50.463 1.295c-0.065 0.344-0.083 0.66-0.041 0.702s0.129-0.205 0.193-0.549c0.065-0.344 0.083-0.66 0.041-0.702s-0.129 0.205-0.193 0.549m-50.631 0.505c2e-3 0.377 0.037 0.511 0.078 0.298s0.04-0.522-3e-3 -0.686-0.077 0.011-0.075 0.388m74.251 0.441c-0.203 0.37-0.3 0.674-0.214 0.674 0.147 0 0.73-1.201 0.63-1.301-0.026-0.026-0.213 0.256-0.416 0.627m-1.24-0.259c-8e-3 0.194 0.106 0.502 0.255 0.685 0.148 0.184 0.217 0.231 0.153 0.106-0.064-0.126-0.179-0.434-0.255-0.686-0.111-0.368-0.142-0.389-0.153-0.105m-73.179 2.133c0 0.424 0.034 0.598 0.074 0.385 0.041-0.212 0.041-0.559 0-0.771-0.04-0.212-0.074-0.039-0.074 0.386m-0.158 3.429c0 0.801 0.029 1.129 0.066 0.728 0.036-0.4 0.036-1.056 0-1.457-0.037-0.401-0.066-0.073-0.066 0.729m-1e-3 8.315c0 0.755 0.031 1.042 0.067 0.639 0.036-0.404 0.035-1.021-1e-3 -1.372-0.037-0.351-0.067-0.021-0.066 0.733m48.845-0.085c0 0.33 0.035 0.465 0.078 0.3s0.043-0.435 0-0.601c-0.043-0.165-0.078-0.03-0.078 0.301m-0.172 1.543c0 0.33 0.036 0.465 0.079 0.3s0.043-0.435 0-0.6-0.079-0.03-0.079 0.3m-48.512 1.971c2e-3 0.472 0.035 0.644 0.074 0.384 0.04-0.261 0.039-0.647-2e-3 -0.858-0.041-0.21-0.073 3e-3 -0.072 0.474m0.166 2.229c2e-3 0.377 0.037 0.512 0.078 0.298 0.041-0.213 0.04-0.522-3e-3 -0.686-0.043-0.163-0.077 0.011-0.075 0.388m48.187 0.257c0 0.519 0.032 0.731 0.071 0.472s0.039-0.684 0-0.943-0.071-0.047-0.071 0.471m-48.019 1.715c0 0.33 0.035 0.465 0.079 0.3 0.043-0.165 0.043-0.435 0-0.6-0.044-0.165-0.079-0.03-0.079 0.3m0.172 1.543c0 0.33 0.035 0.465 0.078 0.3s0.043-0.435 0-0.6-0.078-0.03-0.078 0.3m47.696 3c0 1.886 0.025 2.681 0.055 1.767 0.031-0.914 0.031-2.458 1e-3 -3.429-0.031-0.972-0.056-0.224-0.056 1.662m0.151 6.087c0 0.519 0.032 0.731 0.071 0.472 0.039-0.26 0.039-0.684 0-0.943-0.039-0.26-0.071-0.048-0.071 0.471m-0.012 2.572c0 0.33 0.035 0.465 0.078 0.3 0.044-0.165 0.044-0.435 0-0.6-0.043-0.165-0.078-0.03-0.078 0.3m0.171 1.886c0 0.33 0.036 0.465 0.079 0.3s0.043-0.435 0-0.6-0.079-0.03-0.079 0.3m-45.788 0.428c-3e-3 0.189 0.061 0.498 0.142 0.686 0.188 0.437 0.188-0.014 0-0.6-0.11-0.344-0.138-0.361-0.142-0.086m45.96 1.115c0 0.33 0.035 0.465 0.078 0.3s0.043-0.435 0-0.6-0.078-0.03-0.078 0.3m0.171 1.543c0 0.33 0.036 0.465 0.079 0.3s0.043-0.435 0-0.6-0.079-0.03-0.079 0.3m-45.459 0.514c-0.012 0.295 0.631 2.404 0.654 2.143 8e-3 -0.094-0.133-0.672-0.314-1.285s-0.334-0.999-0.34-0.858m1.197 4.556c-0.017 0.259 0.527 1.821 0.607 1.741 0.036-0.036-0.083-0.484-0.264-0.995-0.182-0.511-0.336-0.847-0.343-0.746m0.887 3.203c0.044 0.117 0.214 0.624 0.379 1.125s0.33 0.881 0.367 0.844c0.087-0.087-0.62-2.184-0.736-2.184-0.049 0-0.053 0.097-0.01 0.215m0.913 2.871c0.064 0.236 0.187 0.545 0.274 0.686 0.11 0.179 0.124 0.127 0.044-0.171-0.063-0.236-0.186-0.545-0.273-0.686-0.111-0.179-0.124-0.126-0.045 0.171m0.515 1.372c0.063 0.236 0.186 0.544 0.273 0.686 0.111 0.179 0.124 0.126 0.045-0.172-0.063-0.235-0.187-0.544-0.274-0.685-0.11-0.179-0.124-0.127-0.044 0.171m0.422 1.225c-3e-3 0.155 0.225 0.826 0.508 1.491s0.515 1.285 0.515 1.378c0 0.279 0.346 1.103 0.428 1.021 0.071-0.071-0.219-0.933-1.088-3.229-0.196-0.519-0.359-0.816-0.363-0.661m43.91 0.318c0 0.142 0.066 0.412 0.147 0.6 0.093 0.216 0.148 0.248 0.148 0.086 0-0.142-0.067-0.412-0.148-0.6-0.093-0.216-0.147-0.248-0.147-0.086m-42.359 3.858c0 0.094 0.148 0.441 0.329 0.771s0.328 0.523 0.328 0.429-0.147-0.442-0.328-0.772-0.329-0.523-0.329-0.428m43.559 0.943c0 0.141 0.066 0.411 0.148 0.6 0.092 0.216 0.147 0.248 0.147 0.086 0-0.142-0.066-0.412-0.147-0.6-0.093-0.217-0.148-0.248-0.148-0.086m-42.777 1.157c0.228 0.555 0.742 1.312 0.553 0.814-0.446-1.173-0.58-1.457-0.689-1.457-0.07 0-9e-3 0.289 0.136 0.643m43.719 2.272c0.058 0.236 0.211 0.66 0.339 0.943 0.189 0.413 0.214 0.43 0.129 0.086-0.057-0.236-0.21-0.661-0.339-0.943-0.188-0.414-0.213-0.43-0.129-0.086m-42.8-0.099c0 0.052 0.217 0.539 0.482 1.082 0.266 0.544 0.732 1.529 1.037 2.189 0.561 1.217 1.496 3.173 2.15 4.5 0.198 0.401 0.417 0.729 0.488 0.729s0.129 0.109 0.129 0.242c0 0.258 1.058 2.186 1.15 2.094 0.03-0.03-0.243-0.625-0.605-1.324-1.889-3.633-2.658-5.211-4.075-8.355-0.427-0.947-0.756-1.451-0.756-1.157m43.239 1.813c0.049 0.142 0.306 0.913 0.573 1.715 0.745 2.241 1.328 3.781 1.402 3.707 0.037-0.038-0.129-0.553-0.37-1.146-0.241-0.592-0.438-1.199-0.439-1.348-1e-3 -0.287-0.998-2.954-1.159-3.099-0.052-0.047-0.055 0.03-7e-3 0.171m2.196 6.388c0 0.112 0.949 2.579 1.203 3.128 0.385 0.831-0.079-0.761-0.548-1.88-0.473-1.13-0.655-1.477-0.655-1.248m-39.948 2.999c0 0.071 0.231 0.476 0.513 0.901 0.282 0.424 0.514 0.854 0.514 0.955s0.23 0.487 0.51 0.857c0.281 0.371 0.512 0.758 0.515 0.862 2e-3 0.104 0.236 0.508 0.519 0.899 0.283 0.39 0.514 0.77 0.514 0.843s0.187 0.409 0.416 0.745c0.229 0.337 0.578 0.9 0.775 1.251s0.436 0.73 0.532 0.842 0.577 0.83 1.069 1.595c1.849 2.874 5.002 7.392 5.618 8.048 0.184 0.196 0.334 0.438 0.334 0.538s0.121 0.283 0.269 0.405c0.148 0.123 1.01 1.193 1.917 2.379 0.906 1.185 1.788 2.256 1.96 2.379s0.312 0.305 0.312 0.403 0.212 0.393 0.472 0.655c0.259 0.262 0.552 0.583 0.652 0.712 0.532 0.693 3.436 4.012 4.262 4.872 0.527 0.548 0.958 1.032 0.958 1.076 0 0.043 0.733 0.8 1.629 1.681 0.895 0.882 1.629 1.662 1.63 1.734 2e-3 0.072 0.625 0.709 1.385 1.416 0.76 0.708 1.943 1.826 2.627 2.487 2.789 2.689 3.582 3.406 6.702 6.064 1.792 1.526 3.412 2.915 3.601 3.087 0.188 0.172 0.979 0.8 1.757 1.395s1.415 1.142 1.415 1.214c0 0.073 0.158 0.183 0.351 0.244 0.194 0.061 0.573 0.317 0.843 0.569 0.269 0.251 1.238 0.997 2.153 1.657 0.914 0.66 1.915 1.412 2.224 1.672 0.308 0.259 0.613 0.471 0.677 0.471 0.063 0 0.42 0.232 0.791 0.515 0.372 0.283 0.98 0.745 1.352 1.028 0.371 0.283 0.723 0.515 0.781 0.515 0.254 0-0.182-0.396-1.168-1.06-0.583-0.394-2.095-1.493-3.36-2.443-1.264-0.95-2.472-1.842-2.685-1.984-0.593-0.395-4.159-3.219-5.217-4.131-0.519-0.448-2.062-1.759-3.429-2.915-1.367-1.155-2.872-2.463-3.343-2.905-0.472-0.442-1.426-1.335-2.121-1.985-1.563-1.459-7.006-6.892-8.161-8.144-2.394-2.596-5.205-5.833-7.421-8.547-0.118-0.144-0.471-0.571-0.785-0.948-0.866-1.042-3.166-4.072-4.277-5.636-0.545-0.767-1.086-1.51-1.202-1.651-0.116-0.142-0.629-0.875-1.14-1.629-0.51-0.754-1.059-1.565-1.219-1.8-1.709-2.522-4.221-6.61-5.979-9.73-0.835-1.482-1.044-1.775-1.042-1.458m41.319 0.639c0 0.044 0.148 0.411 0.329 0.814s0.586 1.331 0.9 2.061c0.315 0.731 0.595 1.258 0.624 1.172s-0.183-0.624-0.472-1.195c-0.288-0.571-0.524-1.131-0.524-1.246 0-0.234-0.677-1.687-0.786-1.687-0.039 0-0.071 0.036-0.071 0.081m1.896 4.388c-0.039 0.372 3.861 8.338 5.786 11.819 1.756 3.174 1.961 3.538 2.662 4.715 0.337 0.565 0.742 1.26 0.901 1.543s0.56 0.938 0.892 1.457c0.331 0.519 0.772 1.213 0.978 1.543s0.911 1.41 1.565 2.401c0.655 0.99 1.603 2.632 2.108 3.649 0.504 1.017 0.952 1.814 0.994 1.772 0.071-0.071-0.068-0.381-0.896-1.992-0.732-1.425-1.23-2.256-2.888-4.816-1.043-1.612-1.278-1.984-1.758-2.782-0.272-0.453-0.746-1.213-1.052-1.689-0.307-0.475-0.558-0.965-0.558-1.089s-0.066-0.252-0.147-0.283c-0.138-0.054-1.093-1.65-2.035-3.401-0.228-0.424-0.711-1.311-1.074-1.971-0.564-1.027-2.822-5.546-4.882-9.773-0.322-0.66-0.59-1.156-0.596-1.103m16.007 29.364c0.055 0.173 0.1 0.385 0.1 0.471 0 0.087 0.077 0.158 0.171 0.158 0.249 0 0.211-0.229-0.099-0.61-0.249-0.305-0.263-0.307-0.172-0.019m0.271 0.828c0 0.179 0.843 2.107 0.85 1.944 0.01-0.228-0.572-1.751-0.728-1.907-0.067-0.067-0.122-0.084-0.122-0.037m1.997 6.316c0.136 0.739 0.233 0.879 0.23 0.329-2e-3 -0.228-0.079-0.531-0.172-0.672-0.118-0.181-0.136-0.079-0.058 0.343m0.446 1.586c0.044 0.118 0.214 0.624 0.379 1.125 0.165 0.502 0.33 0.881 0.366 0.845 0.087-0.087-0.62-2.184-0.736-2.184-0.048 0-0.053 0.096-9e-3 0.214m1.097 3.385c0.061 0.236 0.254 0.737 0.429 1.115 0.175 0.377 0.268 0.494 0.207 0.258-0.061-0.235-0.254-0.736-0.429-1.114s-0.268-0.494-0.207-0.259m0.96 2.959c0.044 0.118 0.214 0.624 0.379 1.125s0.337 0.874 0.382 0.829c0.094-0.093-0.633-2.169-0.759-2.169-0.044 0-0.045 0.097-2e-3 0.215m1.085 3.386c0.063 0.236 0.186 0.544 0.274 0.686 0.11 0.178 0.124 0.126 0.044-0.172-0.063-0.236-0.186-0.544-0.274-0.686-0.11-0.178-0.124-0.126-0.044 0.172m0.486 1.248c0.052 0.168 0.219 0.786 0.371 1.372s0.35 1.182 0.44 1.323c0.127 0.2 0.143 0.179 0.071-0.09-0.052-0.191-0.211-0.799-0.355-1.35-0.143-0.551-0.342-1.128-0.442-1.281-0.16-0.247-0.17-0.244-0.085 0.026m-12.464 3.184c0.314 0.325 1.981 1.463 2.778 1.895 0.244 0.133 0.482 0.298 0.529 0.367 0.078 0.115 1.586 1.065 2.71 1.707 0.247 0.141 0.557 0.356 0.688 0.477s0.558 0.383 0.949 0.582 0.942 0.535 1.225 0.746c0.283 0.212 0.823 0.553 1.2 0.759 0.378 0.205 0.995 0.558 1.372 0.784 1.272 0.762 1.957 1.11 2.179 1.106 0.122-2e-3 -0.087-0.16-0.464-0.352-0.852-0.433-1.516-0.809-2.401-1.36-0.377-0.235-0.884-0.543-1.127-0.684-0.369-0.215-2.156-1.311-3.221-1.976-2.082-1.298-6.192-4.052-6.294-4.216-0.051-0.084-0.169-0.152-0.262-0.152-0.092 0-0.03 0.143 0.139 0.317m13.436-0.106c-7e-3 0.068 0.098 0.416 0.234 0.771 0.135 0.356 0.281 0.801 0.323 0.989 0.059 0.269 0.077 0.25 0.083-0.085 6e-3 -0.38-0.609-1.989-0.64-1.675m1.028 3.257c-7e-3 0.069 0.099 0.416 0.234 0.772 0.136 0.355 0.282 0.8 0.323 0.989 0.06 0.268 0.078 0.25 0.084-0.086 6e-3 -0.38-0.609-1.988-0.641-1.675m0.702 2.361c9e-3 0.446 0.279 1.177 0.285 0.772 3e-3 -0.189-0.061-0.498-0.142-0.686-0.09-0.21-0.146-0.243-0.143-0.086m0.163 1.831c-0.011 0.205-0.223 0.533-0.472 0.728-0.298 0.235-0.363 0.356-0.191 0.356 0.34 0 0.857-0.796 0.759-1.168-0.056-0.213-0.082-0.19-0.096 0.084" fill="#a4dc24"/>
<path d="m96.919 7.817c-0.576 0.212-0.825 0.446-1.227 1.154-0.789 1.389-0.857 1.936-0.887 7.146-0.028 4.792-0.246 7.904-0.77 10.986-0.138 0.809-0.292 1.928-0.344 2.486-0.051 0.558-0.329 2.096-0.619 3.416-0.289 1.32-0.54 2.593-0.557 2.829-0.055 0.748-1.614 6.935-2.614 10.373-1.782 6.128-2.546 8.588-3.313 10.674-0.252 0.684-0.508 1.195-0.569 1.134s-0.077 0.065-0.035 0.278c0.041 0.214-0.146 0.977-0.415 1.695-1.282 3.425-1.578 4.247-1.647 4.568-0.041 0.191-0.278 0.847-0.527 1.458-0.249 0.61-0.563 1.479-0.697 1.929-0.154 0.515-0.316 0.776-0.435 0.703-0.106-0.066-0.142-0.04-0.082 0.056 0.117 0.19-0.339 1.644-0.983 3.137-0.224 0.518-0.692 1.714-1.039 2.657-0.348 0.943-0.851 2.216-1.117 2.829s-0.54 1.308-0.609 1.543c-0.069 0.236-0.307 0.81-0.53 1.276-0.224 0.465-0.406 0.922-0.406 1.015 0 0.092-0.226 0.676-0.503 1.296-0.276 0.621-0.784 1.823-1.128 2.671-0.344 0.849-0.882 2.122-1.196 2.829-0.313 0.708-0.661 1.576-0.771 1.931-0.12 0.382-0.277 0.598-0.386 0.531-0.105-0.065-0.135-0.034-0.069 0.072 0.063 0.102-0.011 0.481-0.166 0.841-0.154 0.36-0.459 1.079-0.677 1.598-0.219 0.518-0.717 1.676-1.108 2.571-0.39 0.896-0.94 2.169-1.222 2.829-0.979 2.294-1.411 3.172-1.56 3.172-0.082 0-0.097 0.087-0.031 0.193 0.065 0.105-0.115 0.703-0.401 1.328s-0.803 1.793-1.15 2.594c-1.525 3.53-2.704 6.217-3.269 7.458-0.215 0.472-0.522 1.185-0.683 1.586-0.16 0.401-0.36 0.729-0.444 0.729s-0.137 0.058-0.119 0.129c0.067 0.253-0.408 1.449-1.993 5.015-0.709 1.594-1.434 3.247-2.256 5.143-0.347 0.802-0.852 1.936-1.123 2.522-0.27 0.585-0.491 1.104-0.491 1.153 0 0.048-0.273 0.649-0.607 1.336-0.334 0.686-0.585 1.253-0.557 1.261 0.027 8e-3 -0.122 0.393-0.331 0.857s-0.964 2.232-1.677 3.93c-1.643 3.91-2.196 5.129-2.358 5.201-0.072 0.032-0.094 0.115-0.051 0.186 0.07 0.113-0.682 1.999-1.612 4.043-0.172 0.377-0.393 0.917-0.491 1.2s-0.537 1.363-0.976 2.4c-0.439 1.038-0.935 2.233-1.103 2.658-0.672 1.695-2.125 5.288-2.531 6.258-0.238 0.566-0.57 1.414-0.739 1.886-0.168 0.471-0.484 1.243-0.7 1.714-0.216 0.472-0.416 0.99-0.443 1.152-0.028 0.161-0.271 0.817-0.541 1.457s-0.588 1.433-0.707 1.763-0.468 1.256-0.775 2.058c-0.308 0.801-0.696 1.843-0.863 2.314-0.168 0.472-0.522 1.398-0.789 2.058-0.266 0.66-0.537 1.432-0.603 1.714-0.065 0.283-0.338 1.004-0.605 1.602-0.268 0.598-0.487 1.194-0.487 1.325 0 0.13-0.239 0.836-0.531 1.57-0.293 0.733-0.565 1.51-0.605 1.726s-0.303 0.97-0.583 1.676-0.51 1.374-0.51 1.484c0 0.111-0.221 0.823-0.491 1.582-0.271 0.759-0.671 1.935-0.891 2.613-0.219 0.678-0.441 1.206-0.494 1.173-0.052-0.032-0.106 0.108-0.118 0.311-0.04 0.638-0.234 1.353-0.757 2.782-0.278 0.761-0.506 1.501-0.506 1.644s-0.24 0.948-0.532 1.788c-0.293 0.84-0.553 1.682-0.579 1.871-0.097 0.709-0.304 1.285-0.461 1.285-0.09 0-0.12 0.069-0.068 0.154 0.052 0.084-0.024 0.489-0.169 0.9s-0.304 1.017-0.353 1.347c-0.098 0.662-0.954 3.464-1.1 3.6-0.05 0.047-0.08 0.278-0.065 0.513 0.014 0.235-0.194 1.164-0.463 2.063s-0.525 1.903-0.568 2.23c-0.044 0.327-0.28 1.344-0.525 2.259s-0.479 1.918-0.519 2.229c-0.04 0.31-0.313 1.568-0.607 2.794-0.295 1.226-0.562 2.537-0.594 2.914-0.033 0.378-0.291 1.802-0.574 3.165s-0.486 2.525-0.452 2.581c0.035 0.057-0.125 1.14-0.355 2.408-0.465 2.56-0.512 2.907-0.666 4.877-0.059 0.754-0.217 2.375-0.352 3.6-0.916 8.357-0.915 17.78 3e-3 25.547 0.134 1.132 0.282 2.636 0.329 3.343s0.288 2.405 0.536 3.772c0.249 1.368 0.482 2.828 0.518 3.246 0.037 0.418 0.3 1.718 0.584 2.888 0.285 1.17 0.484 2.181 0.443 2.248-0.042 0.067 0.187 1.032 0.508 2.145 0.532 1.845 0.715 2.657 0.816 3.618 0.019 0.189 0.081 0.382 0.137 0.429 0.198 0.167 0.797 2.172 0.772 2.583-0.015 0.229 0.024 0.456 0.086 0.503 0.23 0.177 0.994 2.564 0.929 2.903-0.038 0.195-3e-3 0.354 0.076 0.354 0.19 0 0.545 1.024 0.424 1.22-0.052 0.084-0.019 0.152 0.074 0.152 0.092 0 0.295 0.405 0.451 0.9 0.302 0.956 1.036 2.92 1.779 4.758 0.248 0.613 0.451 1.192 0.451 1.286s0.043 0.21 0.096 0.257 0.315 0.626 0.583 1.286c0.267 0.66 0.738 1.74 1.047 2.4 0.308 0.66 0.806 1.741 1.106 2.401 0.536 1.179 1.817 3.747 3.11 6.234 0.36 0.694 0.613 1.331 0.562 1.414-0.052 0.084-0.018 0.153 0.076 0.153s0.573 0.714 1.064 1.586c1.758 3.12 4.27 7.208 5.979 9.73 0.16 0.235 0.708 1.046 1.217 1.8 0.51 0.754 1.065 1.523 1.235 1.709 0.169 0.185 0.27 0.435 0.224 0.555-0.047 0.12-0.015 0.2 0.069 0.177 0.084-0.022 0.525 0.47 0.979 1.094 1.131 1.552 3.429 4.558 4.071 5.325 1.059 1.266 1.384 1.719 1.342 1.872-0.023 0.085 0.023 0.136 0.104 0.112 0.215-0.063 1.414 1.42 1.298 1.607-0.054 0.088-0.022 0.138 0.072 0.112 0.093-0.026 1.121 1.034 2.284 2.355 1.163 1.322 2.442 2.738 2.842 3.149 0.4 0.41 0.683 0.816 0.63 0.902s-0.027 0.135 0.059 0.109 1.581 1.381 3.322 3.125c1.742 1.745 3.536 3.496 3.987 3.893 0.536 0.471 0.776 0.798 0.692 0.943-0.07 0.122-0.067 0.167 8e-3 0.099 0.159-0.143 0.697 0.252 1.891 1.389 0.471 0.449 1.976 1.763 3.343 2.918 1.367 1.156 2.91 2.467 3.429 2.914s1.715 1.416 2.658 2.153c0.943 0.738 1.688 1.427 1.657 1.531-0.031 0.105 0 0.134 0.07 0.064s0.239-0.034 0.375 0.079c0.137 0.113 0.384 0.286 0.549 0.384 0.164 0.098 1.333 0.955 2.596 1.905s2.783 2.056 3.379 2.457c0.595 0.402 1.124 0.839 1.175 0.973 0.051 0.133 0.167 0.197 0.257 0.141 0.091-0.056 0.295 0.014 0.454 0.155 0.342 0.304 4.407 3.009 6.228 4.145 1.065 0.665 2.852 1.761 3.221 1.976 0.243 0.141 0.75 0.449 1.127 0.684 2.766 1.723 3.371 1.928 4.071 1.377 0.904-0.711 0.706-1.85-1.422-8.148-0.454-1.344-1.096-3.344-2.229-6.944-0.311-0.99-0.78-2.386-1.042-3.102s-0.513-1.488-0.558-1.715-0.314-1.087-0.597-1.912c-0.284-0.825-0.54-1.751-0.569-2.057-0.03-0.307-0.1-0.597-0.156-0.644-0.219-0.185-0.81-2.237-0.764-2.654 0.027-0.244 9e-3 -0.404-0.038-0.356-0.102 0.101-0.925-2.078-0.952-2.519-0.01-0.165-0.078-0.3-0.152-0.3-0.075 0-0.135-0.102-0.135-0.226 0-0.43-2.387-4.928-3.453-6.505-1.79-2.651-1.9-2.842-1.766-3.059 0.074-0.119 0.056-0.163-0.041-0.103-0.093 0.058-0.433-0.322-0.755-0.844-2.383-3.859-2.58-4.218-2.472-4.5 0.057-0.148 0.049-0.214-0.019-0.147-0.167 0.167-0.639-0.575-2.153-3.39-2.137-3.972-2.907-5.571-2.781-5.775 0.066-0.106 0.045-0.147-0.046-0.091-0.154 0.095-0.836-1.292-2.764-5.622-0.42-0.943-0.904-2.061-1.074-2.486-1.005-2.497-1.792-4.539-2.215-5.743-1.561-4.455-1.954-5.63-1.978-5.911-0.013-0.144-0.266-0.995-0.563-1.891-0.297-0.895-0.577-1.846-0.623-2.112-0.045-0.266-0.278-1.153-0.518-1.971-0.239-0.819-0.47-1.759-0.513-2.089-0.042-0.33-0.285-1.372-0.538-2.315s-0.485-2.023-0.515-2.4c-0.029-0.377-0.286-1.768-0.57-3.09-0.284-1.323-0.53-2.712-0.547-3.087-0.017-0.374-0.134-1.375-0.261-2.224-1.243-8.33-1.39-22.161-0.325-30.53 0.446-3.505 0.488-3.848 0.689-5.69 0.064-0.589 0.187-1.116 0.274-1.169s0.116-0.165 0.065-0.247 0.063-0.907 0.254-1.831c0.191-0.925 0.378-2.004 0.416-2.399 0.086-0.914 0.649-3.312 0.777-3.313 0.053 0 0.113-0.328 0.133-0.729 0.041-0.833 0.843-4.228 1.711-7.243 1.786-6.209 2.594-8.795 3.372-10.801 0.293-0.754 0.517-1.424 0.497-1.489-0.02-0.064 0.089-0.411 0.241-0.771s0.505-1.272 0.783-2.026c1.426-3.866 2.013-5.284 2.226-5.373 0.076-0.032 0.098-0.121 0.05-0.198-0.121-0.196 0.869-2.247 1.014-2.102 0.065 0.065 0.071-4e-3 0.014-0.153-0.06-0.157 0.523-1.639 1.38-3.51 0.816-1.781 1.64-3.603 1.831-4.049 0.194-0.454 0.425-0.763 0.524-0.702 0.097 0.06 0.126 0.028 0.066-0.07-0.123-0.198 0.792-2.34 0.937-2.195 0.051 0.051 0.093-5e-3 0.095-0.122 8e-3 -0.56 3.132-6.498 3.348-6.364 0.114 0.07 0.139 0.036 0.064-0.085-0.114-0.184 0.519-1.444 2.514-5.012 1.048-1.873 2.804-4.888 3.487-5.985 0.323-0.518 0.704-1.174 0.847-1.457 0.673-1.335 3.165-5.138 3.339-5.097 0.108 0.026 0.149-0.03 0.09-0.125-0.155-0.25 0.236-0.895 0.459-0.757 0.104 0.064 0.145 0.046 0.092-0.041-0.1-0.161 1.155-2.275 2.701-4.55 0.471-0.693 0.895-1.338 0.943-1.432s0.511-0.788 1.03-1.541c0.518-0.754 1.097-1.613 1.286-1.911 0.188-0.297 0.921-1.368 1.628-2.38 0.708-1.012 1.402-2.007 1.543-2.211 1.757-2.529 2.123-2.996 2.276-2.901 0.099 0.061 0.127 0.027 0.063-0.076-0.119-0.193 1.521-2.525 1.776-2.525 0.079 0 0.207-0.07 0.286-0.156 0.083-0.09 0.053-0.104-0.071-0.032-0.381 0.219-0.229-0.162 0.342-0.855 0.307-0.373 0.635-0.799 0.729-0.947 0.648-1.019 1.879-2.525 2.003-2.448 0.082 0.05 0.138 0.028 0.124-0.05-0.057-0.329 0.039-0.546 0.41-0.932 0.216-0.225 0.885-1.081 1.487-1.901 0.601-0.821 1.169-1.446 1.261-1.388 0.093 0.057 0.12 0.024 0.06-0.073-0.153-0.246 1.061-1.797 1.293-1.653 0.111 0.068 0.139 0.036 0.068-0.077-0.187-0.304 3.425-4.897 3.712-4.719 0.099 0.061 0.131 0.033 0.073-0.062-0.059-0.095 0.083-0.352 0.316-0.571s0.42-0.326 0.417-0.239c-0.015 0.367-1.708 3.24-1.884 3.197-0.106-0.026-0.142 0.034-0.081 0.134 0.062 0.099-0.079 0.506-0.312 0.904s-0.613 1.071-0.845 1.495c-0.231 0.425-0.714 1.273-1.072 1.886s-0.881 1.539-1.162 2.058c-0.752 1.387-1.654 3.044-2.241 4.115-1.725 3.146-4.993 9.623-6.79 13.459-0.398 0.848-0.943 2.006-1.211 2.572-0.776 1.634-2.661 5.891-3.176 7.17-0.259 0.643-0.572 1.271-0.696 1.394-0.123 0.124-0.179 0.27-0.124 0.325s-0.142 0.681-0.437 1.392c-0.969 2.331-1.521 3.749-2.24 5.749-0.39 1.085-0.905 2.448-1.145 3.029s-0.451 1.16-0.471 1.286c-0.083 0.546-2.093 6.412-2.23 6.511-0.084 0.06-0.106 0.185-0.049 0.277 0.115 0.186-0.726 2.841-0.926 2.922-0.069 0.028-0.089 0.192-0.044 0.365s-0.157 1.061-0.449 1.973-0.564 1.916-0.605 2.232c-0.04 0.315-0.315 1.403-0.61 2.417-0.296 1.014-0.543 2.006-0.549 2.203-7e-3 0.198-0.239 1.286-0.516 2.418-0.278 1.131-0.531 2.341-0.563 2.688-0.033 0.347-0.287 1.813-0.566 3.257-0.279 1.445-0.514 2.83-0.523 3.078s-0.256 2.1-0.549 4.115c-0.292 2.015-0.56 4.513-0.596 5.55-0.035 1.037-0.144 3.159-0.241 4.715-0.49 7.8-0.072 12.071 1.004 10.257 0.186-0.313 0.422-0.666 0.526-0.784s0.149-0.215 0.1-0.215c-0.048 0-4e-3 -0.212 0.099-0.471s0.249-0.703 0.324-0.986c0.444-1.67 3.694-8.879 5.625-12.476 1.913-3.564 2.531-4.595 2.67-4.456 0.071 0.071 0.104 0.052 0.072-0.043-0.091-0.277 1.437-2.825 1.625-2.709 0.095 0.058 0.121 0.024 0.059-0.076-0.092-0.15 0.613-1.336 2.129-3.577 1.741-2.575 2.432-3.489 2.572-3.402 0.092 0.057 0.147 0.03 0.121-0.061-0.072-0.252 2.118-3.296 2.293-3.188 0.085 0.052 0.133 0.016 0.107-0.08-0.055-0.205 0.493-0.934 3.016-4.009 1.724-2.1 2.169-2.618 3.114-3.618 0.191-0.202 0.922-1.023 1.625-1.825 1.592-1.815 9.613-9.85 11.9-11.92 1.899-1.72 2.508-2.277 3.305-3.025 0.3-0.282 0.686-0.536 0.857-0.565 0.171-0.028 0.292-0.135 0.27-0.237-0.049-0.224 4.203-3.733 4.442-3.666 0.092 0.026 0.123-0.025 0.067-0.115-0.118-0.192 3.441-3.083 7.204-5.852 0.965-0.71 2-1.479 2.3-1.709 0.3-0.229 0.723-0.536 0.94-0.68 0.217-0.145 0.876-0.611 1.465-1.035 0.59-0.424 1.253-0.887 1.475-1.029 0.221-0.141 1.04-0.687 1.819-1.213 3.448-2.328 4.633-3.066 4.777-2.977 0.086 0.053 0.155 0.015 0.155-0.083 0-0.099 0.328-0.385 0.729-0.637s1.13-0.722 1.62-1.046c0.536-0.354 0.981-0.538 1.115-0.461 0.122 0.071 0.165 0.065 0.095-0.012-0.107-0.118 1.396-1.286 1.652-1.286 0.045 0 0.453-0.224 0.907-0.499 3.234-1.952 4.389-2.579 4.566-2.477 0.112 0.064 0.145 0.052 0.075-0.026-0.137-0.15 0.41-0.495 2.786-1.76 0.802-0.427 1.65-0.91 1.886-1.073 0.755-0.523 2.27-1.19 2.45-1.078 0.1 0.062 0.122 0.023 0.052-0.091-0.08-0.129 0.163-0.323 0.679-0.544 0.441-0.189 1.024-0.502 1.295-0.695 0.272-0.193 0.565-0.307 0.652-0.254 0.087 0.054 0.184 0.029 0.215-0.055 0.089-0.236 3.944-2.256 4.374-2.291 0.21-0.018 0.347-0.067 0.304-0.11-0.093-0.093 1.254-0.877 1.508-0.877 0.098 0 0.572-0.243 1.054-0.541 0.482-0.297 1.081-0.547 1.331-0.557 0.25-9e-3 0.42-0.072 0.379-0.139-0.115-0.188 1.653-1.029 1.936-0.92 0.136 0.052 0.21 0.033 0.163-0.043-0.155-0.251 5.295-2.847 5.591-2.664 0.103 0.064 0.139 0.038 0.081-0.056-0.129-0.209 1.909-1.12 2.159-0.966 0.097 0.06 0.132 0.037 0.077-0.052-0.055-0.088 0.724-0.531 1.731-0.983 1.006-0.453 2.062-0.93 2.344-1.061 3.132-1.445 3.915-1.776 4.034-1.703 0.076 0.047 0.164 0.027 0.195-0.044 0.059-0.132 0.809-0.484 3.744-1.759 4.279-1.858 5.711-2.471 7.801-3.342 0.849-0.353 2.058-0.865 2.686-1.136 0.629-0.272 1.246-0.5 1.372-0.507 0.126-8e-3 0.768-0.297 1.427-0.643 2.64-1.386 3.041-3.672 1.103-6.277-0.285-0.383-1.053-1.468-1.705-2.411s-1.3-1.869-1.439-2.057c-1.653-2.248-2.304-3.245-2.214-3.392 0.06-0.097 0.028-0.126-0.071-0.065-0.102 0.063-0.809-0.733-1.613-1.815-0.787-1.06-1.895-2.507-2.461-3.216-0.565-0.708-1.53-1.935-2.143-2.725s-1.286-1.628-1.497-1.863c-0.21-0.235-0.333-0.513-0.272-0.619 0.06-0.106 0.051-0.14-0.022-0.075-0.186 0.167-1.495-1.391-1.356-1.615 0.065-0.105 0.035-0.136-0.07-0.071-0.218 0.134-0.937-0.716-0.797-0.943 0.053-0.085 0.02-0.134-0.073-0.108s-0.684-0.57-1.314-1.325c-2.566-3.074-8.574-9.799-11.692-13.088-0.584-0.616-1.016-1.194-0.959-1.286 0.056-0.091 0.028-0.12-0.063-0.064-0.188 0.116-4.799-4.655-4.727-4.892 0.026-0.085-0.021-0.112-0.105-0.061-0.207 0.128-0.747-0.488-0.585-0.667 0.071-0.078 0.046-0.095-0.055-0.038-0.232 0.132-3.39-3.02-3.208-3.201 0.074-0.074 0.049-0.109-0.055-0.077-0.229 0.069-6.517-6.013-6.45-6.239 0.026-0.088-0.021-0.117-0.104-0.066s-0.771-0.502-1.529-1.23c-1.808-1.735-4.43-4.154-6.082-5.609-0.727-0.641-1.275-1.243-1.216-1.338 0.059-0.096 0.029-0.125-0.066-0.067-0.095 0.059-0.709-0.373-1.364-0.959-0.656-0.586-1.718-1.529-2.361-2.095s-1.344-1.183-1.558-1.371c-0.214-0.189-0.61-0.538-0.879-0.775-0.27-0.237-1.532-1.315-2.805-2.394s-2.855-2.433-3.515-3.01c-0.66-0.576-1.759-1.494-2.442-2.039-0.683-0.546-1.192-1.073-1.131-1.171 0.062-0.101 0.029-0.13-0.074-0.066-0.224 0.139-1.782-1.17-1.615-1.356 0.065-0.073 0.028-0.08-0.082-0.017s-0.335-0.021-0.5-0.187c-0.164-0.166-0.507-0.456-0.762-0.644-1.465-1.085-2.726-2.195-2.644-2.329 0.052-0.084-5e-3 -0.117-0.128-0.073-0.123 0.045-0.511-0.169-0.863-0.473-0.352-0.305-0.885-0.747-1.184-0.983s-0.783-0.628-1.074-0.872c-0.292-0.244-1.077-0.861-1.744-1.371-0.667-0.511-2.249-1.738-3.515-2.727s-2.379-1.855-2.473-1.923c-0.095-0.069-0.442-0.342-0.772-0.609-0.33-0.266-0.765-0.597-0.966-0.734-0.202-0.138-1.12-0.83-2.041-1.537-1.766-1.355-1.993-1.524-3.658-2.722-0.573-0.413-0.994-0.83-0.934-0.927 0.059-0.097 0.029-0.127-0.068-0.067-0.098 0.06-0.508-0.14-0.912-0.445-0.698-0.526-2.019-1.5-5.986-4.411-1.894-1.391-2.064-1.513-4.016-2.892-0.717-0.506-1.254-1-1.193-1.098 0.065-0.106 0.026-0.127-0.095-0.051-0.118 0.072-0.477-0.081-0.841-0.359-0.35-0.268-1.215-0.892-1.922-1.388-0.707-0.497-1.556-1.094-1.886-1.329-1.576-1.119-4.2-2.941-7.141-4.959-1.777-1.22-3.27-2.272-3.317-2.338-0.048-0.067-0.323-0.265-0.612-0.441-0.721-0.437-2.517-1.634-2.73-1.818-0.173-0.15-0.592-0.426-2.169-1.431-0.458-0.291-0.793-0.567-0.747-0.614 0.047-0.047-0.011-0.092-0.129-0.101s-0.56-0.143-0.982-0.299c-1.109-0.407-2.203-0.463-3.042-0.155" fill="#046424"/>
</g>
</svg>