<svg width="54" height="49" viewBox="0 0 54 49" fill="none" xmlns="http://www.w3.org/2000/svg">
<path d="M34.8682 16.3135C34.9243 15.8789 35 15.4492 35 15C35 9.4775 30.5249 5 25 5C21.7334 5 18.8598 6.58937 17.0349 9.01367C16.3794 8.855 15.7044 8.75 15 8.75C10.1673 8.75 6.25 12.666 6.25 17.5C6.25 17.6367 6.28422 17.7588 6.28906 17.8955C2.66359 18.9624 0 22.2778 0 26.25C0 31.084 3.91727 35 8.75 35H30C35.5249 35 40 30.5249 40 25C40 21.2549 37.9175 18.0273 34.8682 16.3135Z" fill="#A4DA22"/>
<path d="M34.8682 16.3135C34.9243 15.8789 35 15.4492 35 15C35 9.4775 30.5249 5 25 5C21.7334 5 18.8598 6.58937 17.0349 9.01367C16.3794 8.855 15.7044 8.75 15 8.75C10.1673 8.75 6.25 12.666 6.25 17.5C6.25 17.6367 6.28422 17.7588 6.28906 17.8955C2.66359 18.9624 0 22.2778 0 26.25C0 31.084 3.91727 35 8.75 35H30C35.5249 35 40 30.5249 40 25C40 21.2549 37.9175 18.0273 34.8682 16.3135Z" fill="black" fill-opacity="0.2"/>
<path d="M21.6063 32.6187C21.6063 31.15 22.0063 29.4563 22.8126 27.55C23.6126 25.6438 24.6501 23.7875 25.9251 22.0125C28.5376 18.5687 30.8063 15.9563 32.7188 14.2L33.9688 13C34.3876 13.4375 34.8563 13.8375 35.3563 14.2062C36.0438 14.9125 37.0938 16.0625 38.5001 17.7C39.9063 19.3375 41.1251 20.7938 42.1313 22.1313C43.3188 23.8188 44.3376 25.6438 45.1563 27.5688C45.9751 29.4938 46.3938 31.1813 46.3938 32.6375C46.3938 34.3125 46.0751 35.9 45.4251 37.425C44.7751 38.9437 43.9001 40.2687 42.8001 41.375C41.6938 42.4813 40.3751 43.3625 38.8376 44.0187C37.3001 44.6687 35.6751 45.0062 33.9688 45.0062C32.2938 45.0062 30.7063 44.6875 29.1876 44.05C27.6626 43.4125 26.3438 42.5625 25.2376 41.4562C24.1313 40.3687 23.2501 39.05 22.5938 37.525C21.9376 36 21.6063 34.3625 21.6063 32.6187ZM25.3876 27.7188C25.3876 29.1063 25.6688 30.2125 26.2563 31.05C26.8438 31.8687 27.7251 32.2875 28.9188 32.2875C30.1251 32.2875 31.0126 31.8687 31.6126 31.05C32.2001 30.2312 32.5001 29.125 32.5188 27.7188C32.5001 26.3125 32.2001 25.2125 31.6126 24.375C31.0251 23.5562 30.1251 23.1375 28.9188 23.1375C27.7313 23.1375 26.8438 23.5562 26.2563 24.375C25.6688 25.2125 25.3876 26.3125 25.3876 27.7188ZM28.0126 27.7188C28.0126 27.4688 28.0126 27.2688 28.0126 27.1313C28.0126 27 28.0313 26.8125 28.0438 26.5813C28.0626 26.3438 28.0751 26.1625 28.1251 26.0437L28.2751 25.6438L28.5251 25.3438L28.9126 25.2437C29.1501 25.2437 29.3313 25.3125 29.4626 25.4438C29.5938 25.575 29.7001 25.7938 29.7438 26.0813C29.7938 26.3813 29.8251 26.6188 29.8438 26.8313C29.8626 27.05 29.8626 27.3312 29.8626 27.7C29.8626 28.0875 29.8626 28.3688 29.8438 28.5688C29.8251 28.7688 29.7938 29.0188 29.7438 29.3188C29.6938 29.6063 29.5938 29.8187 29.4626 29.9562C29.3313 30.0875 29.1438 30.1562 28.9126 30.1562L28.5251 30.0562L28.2751 29.7563L28.1251 29.3563C28.0938 29.225 28.0563 29.0375 28.0438 28.8188C28.0251 28.5813 28.0126 28.4 28.0126 28.2812C28.0126 28.1688 28.0126 27.9688 28.0126 27.7188ZM29.0001 40.6812H31.2063L39.5501 22.7188H37.2938L29.0001 40.6812ZM36.1938 35.6812C36.2126 37.0875 36.5251 38.1875 37.1126 39.025C37.7001 39.8437 38.6001 40.2625 39.7876 40.2625C40.9938 40.2625 41.8813 39.8437 42.4626 39.025C43.0501 38.2062 43.3313 37.0812 43.3501 35.6812C43.3313 34.275 43.0501 33.175 42.4626 32.35C41.8751 31.5313 40.9938 31.1125 39.7876 31.1125C38.6001 31.1125 37.6938 31.5313 37.1126 32.35C36.5063 33.175 36.2063 34.275 36.1938 35.6812ZM38.8188 35.6812C38.8188 35.2937 38.8188 35.0125 38.8376 34.8125C38.8563 34.6125 38.8876 34.3625 38.9376 34.0625C38.9876 33.7625 39.0876 33.5625 39.2188 33.425C39.3501 33.2875 39.5376 33.225 39.7688 33.225L40.1688 33.325L40.4376 33.6437C40.5063 33.7937 40.5563 33.925 40.6063 34.0438C40.6563 34.1625 40.6751 34.3437 40.6876 34.5812L40.7063 35.1187V35.6875C40.7063 35.9563 40.7063 36.1562 40.7063 36.275L40.6876 36.8125L40.6063 37.35L40.4376 37.75L40.1688 38.0688L39.7688 38.1688C39.5313 38.1688 39.3501 38.1 39.2188 37.9688C39.0876 37.8375 38.9813 37.6187 38.9376 37.3312C38.8876 37.0312 38.8563 36.7812 38.8376 36.5812C38.8188 36.3687 38.8188 36.0687 38.8188 35.6812Z" fill="#A4DA22"/>
</svg>
