<svg width="60" height="56" viewBox="0 0 60 56" fill="none" xmlns="http://www.w3.org/2000/svg">
<path d="M34.8682 16.3135C34.9243 15.8789 35 15.4492 35 15C35 9.4775 30.5249 5 25 5C21.7334 5 18.8598 6.58938 17.0349 9.01367C16.3794 8.855 15.7044 8.75 15 8.75C10.1673 8.75 6.25 12.666 6.25 17.5C6.25 17.6367 6.28422 17.7588 6.28906 17.8955C2.66359 18.9624 0 22.2778 0 26.25C0 31.084 3.91727 35 8.75 35H30C35.5249 35 40 30.5249 40 25C40 21.2549 37.9175 18.0273 34.8682 16.3135Z" fill="#A4DA22"/>
<path d="M34.8682 16.3135C34.9243 15.8789 35 15.4492 35 15C35 9.4775 30.5249 5 25 5C21.7334 5 18.8598 6.58938 17.0349 9.01367C16.3794 8.855 15.7044 8.75 15 8.75C10.1673 8.75 6.25 12.666 6.25 17.5C6.25 17.6367 6.28422 17.7588 6.28906 17.8955C2.66359 18.9624 0 22.2778 0 26.25C0 31.084 3.91727 35 8.75 35H30C35.5249 35 40 30.5249 40 25C40 21.2549 37.9175 18.0273 34.8682 16.3135Z" fill="black" fill-opacity="0.2"/>
<path d="M42.3749 34.4584V18.7917C42.3749 15.5409 39.7508 12.9167 36.4999 12.9167C33.2491 12.9167 30.6249 15.5409 30.6249 18.7917V34.4584C28.2553 36.2405 26.7083 39.0997 26.7083 42.2917C26.7083 47.6968 31.0949 52.0834 36.4999 52.0834C41.9049 52.0834 46.2916 47.6968 46.2916 42.2917C46.2916 39.0997 44.7445 36.2405 42.3749 34.4584ZM34.5416 18.7917C34.5416 17.7147 35.4228 16.8334 36.4999 16.8334C37.577 16.8334 38.4583 17.7147 38.4583 18.7917H36.4999V20.7501H38.4583V24.6667H36.4999V26.6251H38.4583V30.5417H34.5416V18.7917Z" fill="#A4DA22"/>
</svg>
