<svg width="46" height="46" viewBox="0 0 46 46" fill="none" xmlns="http://www.w3.org/2000/svg">
<path d="M22.9999 11.5C26.0499 11.5 28.9749 12.7116 31.1316 14.8683C33.2883 17.0249 34.4999 19.95 34.4999 23C34.4999 27.255 32.1807 30.9733 28.7499 32.9667V36.4167C28.7499 36.925 28.5479 37.4125 28.1885 37.7719C27.8291 38.1314 27.3415 38.3333 26.8332 38.3333H19.1665C18.6582 38.3333 18.1707 38.1314 17.8113 37.7719C17.4518 37.4125 17.2499 36.925 17.2499 36.4167V32.9667C13.819 30.9733 11.4999 27.255 11.4999 23C11.4999 19.95 12.7115 17.0249 14.8681 14.8683C17.0248 12.7116 19.9499 11.5 22.9999 11.5ZM26.8332 40.25V42.1667C26.8332 42.675 26.6313 43.1625 26.2718 43.5219C25.9124 43.8814 25.4249 44.0833 24.9165 44.0833H21.0832C20.5749 44.0833 20.0874 43.8814 19.7279 43.5219C19.3685 43.1625 19.1665 42.675 19.1665 42.1667V40.25H26.8332Z" fill="#A4DA22"/>
<path d="M38.3332 21.0834H44.0832V24.9167H38.3332V21.0834ZM1.9165 21.0834H7.6665V24.9167H1.9165V21.0834ZM24.9165 1.91675V7.66675H21.0832V1.91675H24.9165ZM9.42984 6.70841L13.5123 10.8101L10.7907 13.5126L6.70817 9.44924L9.42984 6.70841ZM32.4873 10.7909L36.5507 6.70841L39.2915 9.44924L35.209 13.5126L32.4873 10.7909Z" fill="#A4DA22"/>
<path d="M38.3332 21.0834H44.0832V24.9167H38.3332V21.0834ZM1.9165 21.0834H7.6665V24.9167H1.9165V21.0834ZM24.9165 1.91675V7.66675H21.0832V1.91675H24.9165ZM9.42984 6.70841L13.5123 10.8101L10.7907 13.5126L6.70817 9.44924L9.42984 6.70841ZM32.4873 10.7909L36.5507 6.70841L39.2915 9.44924L35.209 13.5126L32.4873 10.7909Z" fill="black" fill-opacity="0.2"/>
</svg>
