<svg width="66" height="41" viewBox="0 0 66 41" fill="none" xmlns="http://www.w3.org/2000/svg">
<path d="M34.9851 20.9783C30.1279 21.298 25.9926 22.4994 22.5276 24.5928C22.2028 24.7888 21.5479 25.2064 21.0736 25.5261C20.5992 25.8406 19.8825 26.3047 19.4751 26.5574C15.8606 28.8003 11.7459 30.4709 6.8681 31.6672C6.29576 31.8116 5.71826 31.9766 5.58419 32.0384C5.06341 32.2808 4.79529 32.7242 4.79529 33.3378C4.79529 34.1216 5.16138 34.8538 5.98123 35.7097C7.65185 37.4474 10.1784 38.5302 13.6125 38.9736C14.1694 39.0458 14.6695 39.0613 16.1133 39.0561C18.315 39.0509 19.2328 38.9891 19.9289 38.8086C20.3672 38.6952 20.5373 38.6745 21.089 38.6849C21.5634 38.6952 21.7284 38.6797 21.7233 38.6384C21.7129 38.5972 21.8161 38.5766 22.0481 38.5766C22.3214 38.5766 22.4194 38.6024 22.5689 38.7055C22.7648 38.8344 22.8422 38.8344 22.8422 38.7003C22.8422 38.6178 23.1103 38.623 25.0542 38.7313C25.6111 38.7622 25.9204 38.7622 26.0958 38.7209C26.3175 38.6694 26.4309 38.6797 26.9878 38.8086C27.4364 38.9066 27.622 38.9684 27.6065 39.0149C27.5756 39.087 28.0861 39.1953 28.4676 39.1953C28.5914 39.1953 28.8595 39.2314 29.0554 39.2727C30.3084 39.5408 31.2675 39.613 32.2523 39.5202C33.1186 39.4377 33.1701 39.4377 33.464 39.4789C33.7528 39.5253 34.7325 39.4274 34.8304 39.35C34.9387 39.2572 35.6709 39.3655 36.6609 39.6181C37.5065 39.8295 37.5169 39.8347 38.4914 39.8347C39.0328 39.8399 39.667 39.8089 39.9094 39.778C40.1517 39.7419 40.755 39.6645 41.25 39.6078C41.745 39.5511 42.2709 39.4789 42.4101 39.4531C42.9258 39.3552 43.3537 39.3397 44.0086 39.3964C45.0244 39.4892 45.0501 39.4944 45.1172 39.6594C45.1945 39.8502 45.2976 39.8708 45.9679 39.8347C46.5197 39.7986 47.0147 39.6749 47.3086 39.4841C47.3653 39.448 47.6231 39.3913 47.8758 39.3552C48.314 39.2881 49.1133 39.1386 50.8664 38.7777C51.9079 38.5663 52.769 38.4734 53.7384 38.4734C54.7748 38.4734 55.3987 38.36 55.7494 38.1022C55.8112 38.0558 55.9401 38.0558 56.265 38.0919C56.5073 38.1228 56.827 38.1228 56.9972 38.1022C57.2447 38.0661 57.3117 38.0764 57.3581 38.1383C57.4097 38.2105 57.4509 38.2002 57.6933 38.0764C57.9562 37.9424 57.9923 37.8959 58.2501 37.4164C58.4048 37.1328 58.575 36.8544 58.6317 36.7925C58.7503 36.6688 58.7606 36.3903 58.6575 36.1738C58.6162 36.0913 58.5079 35.8386 58.4151 35.6169C58.3223 35.39 58.1161 35.0084 57.9511 34.7661C57.6675 34.3433 57.4458 34.0803 56.1928 32.6366C55.244 31.5538 54.5892 31.0742 52.9804 30.2802C52.0111 29.8006 51.9131 29.7388 51.382 29.2695C50.7065 28.6714 50.3301 28.3981 49.8094 28.1145C49.5515 27.9753 49.3865 27.8516 49.3195 27.7381L49.2215 27.568L49.3608 27.6608C49.4381 27.7072 49.5567 27.7845 49.6289 27.8309C49.7011 27.8774 49.7578 27.9031 49.7578 27.8877C49.7578 27.7897 49.1545 26.5574 48.9792 26.2892C48.8606 26.1139 48.4584 25.6653 48.0872 25.2941C47.5148 24.7269 47.2776 24.5361 46.5351 24.0411C45.1739 23.1439 43.9467 22.5613 42.1162 21.9528C40.6467 21.4578 39.4247 21.1639 38.2542 21.0195C37.6715 20.9474 35.7947 20.9216 34.9851 20.9783Z" fill="#A4DA22"/>
<path d="M34.9851 20.9783C30.1279 21.298 25.9926 22.4994 22.5276 24.5928C22.2028 24.7888 21.5479 25.2064 21.0736 25.5261C20.5992 25.8406 19.8825 26.3047 19.4751 26.5574C15.8606 28.8003 11.7459 30.4709 6.8681 31.6672C6.29576 31.8116 5.71826 31.9766 5.58419 32.0384C5.06341 32.2808 4.79529 32.7242 4.79529 33.3378C4.79529 34.1216 5.16138 34.8538 5.98123 35.7097C7.65185 37.4474 10.1784 38.5302 13.6125 38.9736C14.1694 39.0458 14.6695 39.0613 16.1133 39.0561C18.315 39.0509 19.2328 38.9891 19.9289 38.8086C20.3672 38.6952 20.5373 38.6745 21.089 38.6849C21.5634 38.6952 21.7284 38.6797 21.7233 38.6384C21.7129 38.5972 21.8161 38.5766 22.0481 38.5766C22.3214 38.5766 22.4194 38.6024 22.5689 38.7055C22.7648 38.8344 22.8422 38.8344 22.8422 38.7003C22.8422 38.6178 23.1103 38.623 25.0542 38.7313C25.6111 38.7622 25.9204 38.7622 26.0958 38.7209C26.3175 38.6694 26.4309 38.6797 26.9878 38.8086C27.4364 38.9066 27.622 38.9684 27.6065 39.0149C27.5756 39.087 28.0861 39.1953 28.4676 39.1953C28.5914 39.1953 28.8595 39.2314 29.0554 39.2727C30.3084 39.5408 31.2675 39.613 32.2523 39.5202C33.1186 39.4377 33.1701 39.4377 33.464 39.4789C33.7528 39.5253 34.7325 39.4274 34.8304 39.35C34.9387 39.2572 35.6709 39.3655 36.6609 39.6181C37.5065 39.8295 37.5169 39.8347 38.4914 39.8347C39.0328 39.8399 39.667 39.8089 39.9094 39.778C40.1517 39.7419 40.755 39.6645 41.25 39.6078C41.745 39.5511 42.2709 39.4789 42.4101 39.4531C42.9258 39.3552 43.3537 39.3397 44.0086 39.3964C45.0244 39.4892 45.0501 39.4944 45.1172 39.6594C45.1945 39.8502 45.2976 39.8708 45.9679 39.8347C46.5197 39.7986 47.0147 39.6749 47.3086 39.4841C47.3653 39.448 47.6231 39.3913 47.8758 39.3552C48.314 39.2881 49.1133 39.1386 50.8664 38.7777C51.9079 38.5663 52.769 38.4734 53.7384 38.4734C54.7748 38.4734 55.3987 38.36 55.7494 38.1022C55.8112 38.0558 55.9401 38.0558 56.265 38.0919C56.5073 38.1228 56.827 38.1228 56.9972 38.1022C57.2447 38.0661 57.3117 38.0764 57.3581 38.1383C57.4097 38.2105 57.4509 38.2002 57.6933 38.0764C57.9562 37.9424 57.9923 37.8959 58.2501 37.4164C58.4048 37.1328 58.575 36.8544 58.6317 36.7925C58.7503 36.6688 58.7606 36.3903 58.6575 36.1738C58.6162 36.0913 58.5079 35.8386 58.4151 35.6169C58.3223 35.39 58.1161 35.0084 57.9511 34.7661C57.6675 34.3433 57.4458 34.0803 56.1928 32.6366C55.244 31.5538 54.5892 31.0742 52.9804 30.2802C52.0111 29.8006 51.9131 29.7388 51.382 29.2695C50.7065 28.6714 50.3301 28.3981 49.8094 28.1145C49.5515 27.9753 49.3865 27.8516 49.3195 27.7381L49.2215 27.568L49.3608 27.6608C49.4381 27.7072 49.5567 27.7845 49.6289 27.8309C49.7011 27.8774 49.7578 27.9031 49.7578 27.8877C49.7578 27.7897 49.1545 26.5574 48.9792 26.2892C48.8606 26.1139 48.4584 25.6653 48.0872 25.2941C47.5148 24.7269 47.2776 24.5361 46.5351 24.0411C45.1739 23.1439 43.9467 22.5613 42.1162 21.9528C40.6467 21.4578 39.4247 21.1639 38.2542 21.0195C37.6715 20.9474 35.7947 20.9216 34.9851 20.9783Z" fill="black" fill-opacity="0.2"/>
<g clip-path="url(#clip0_57:1937)">
<path d="M30.6063 19.6187C30.6063 18.15 31.0063 16.4562 31.8126 14.55C32.6126 12.6438 33.6501 10.7875 34.9251 9.0125C37.5376 5.56875 39.8063 2.95625 41.7188 1.2L42.9688 0C43.3876 0.4375 43.8563 0.8375 44.3563 1.20625C45.0438 1.9125 46.0938 3.0625 47.5001 4.7C48.9063 6.3375 50.1251 7.79375 51.1313 9.13125C52.3188 10.8188 53.3376 12.6438 54.1563 14.5688C54.9751 16.4937 55.3938 18.1813 55.3938 19.6375C55.3938 21.3125 55.0751 22.9 54.4251 24.425C53.7751 25.9437 52.9001 27.2687 51.8001 28.375C50.6938 29.4813 49.3751 30.3625 47.8376 31.0187C46.3001 31.6687 44.6751 32.0062 42.9688 32.0062C41.2938 32.0062 39.7063 31.6875 38.1876 31.05C36.6626 30.4125 35.3438 29.5625 34.2376 28.4562C33.1313 27.3687 32.2501 26.05 31.5938 24.525C30.9376 23 30.6063 21.3625 30.6063 19.6187ZM34.3876 14.7188C34.3876 16.1063 34.6688 17.2125 35.2563 18.05C35.8438 18.8687 36.7251 19.2875 37.9188 19.2875C39.1251 19.2875 40.0126 18.8687 40.6126 18.05C41.2001 17.2312 41.5001 16.125 41.5188 14.7188C41.5001 13.3125 41.2001 12.2125 40.6126 11.375C40.0251 10.5562 39.1251 10.1375 37.9188 10.1375C36.7313 10.1375 35.8438 10.5562 35.2563 11.375C34.6688 12.2125 34.3876 13.3125 34.3876 14.7188ZM37.0126 14.7188C37.0126 14.4688 37.0126 14.2688 37.0126 14.1313C37.0126 14 37.0313 13.8125 37.0438 13.5813C37.0626 13.3438 37.0751 13.1625 37.1251 13.0437L37.2751 12.6438L37.5251 12.3438L37.9126 12.2437C38.1501 12.2437 38.3313 12.3125 38.4626 12.4438C38.5938 12.575 38.7001 12.7937 38.7438 13.0813C38.7938 13.3813 38.8251 13.6188 38.8438 13.8313C38.8626 14.05 38.8626 14.3313 38.8626 14.7C38.8626 15.0875 38.8626 15.3688 38.8438 15.5688C38.8251 15.7688 38.7938 16.0188 38.7438 16.3188C38.6938 16.6063 38.5938 16.8187 38.4626 16.9562C38.3313 17.0875 38.1438 17.1562 37.9126 17.1562L37.5251 17.0562L37.2751 16.7563L37.1251 16.3563C37.0938 16.225 37.0563 16.0375 37.0438 15.8188C37.0251 15.5813 37.0126 15.4 37.0126 15.2812C37.0126 15.1687 37.0126 14.9688 37.0126 14.7188ZM38.0001 27.6812H40.2063L48.5501 9.71875H46.2938L38.0001 27.6812ZM45.1938 22.6812C45.2126 24.0875 45.5251 25.1875 46.1126 26.025C46.7001 26.8438 47.6001 27.2625 48.7876 27.2625C49.9938 27.2625 50.8813 26.8438 51.4626 26.025C52.0501 25.2062 52.3313 24.0812 52.3501 22.6812C52.3313 21.275 52.0501 20.175 51.4626 19.35C50.8751 18.5312 49.9938 18.1125 48.7876 18.1125C47.6001 18.1125 46.6938 18.5312 46.1126 19.35C45.5063 20.175 45.2063 21.275 45.1938 22.6812ZM47.8188 22.6812C47.8188 22.2937 47.8188 22.0125 47.8376 21.8125C47.8563 21.6125 47.8876 21.3625 47.9376 21.0625C47.9876 20.7625 48.0876 20.5625 48.2188 20.425C48.3501 20.2875 48.5376 20.225 48.7688 20.225L49.1688 20.325L49.4376 20.6437C49.5063 20.7937 49.5563 20.925 49.6063 21.0438C49.6563 21.1625 49.6751 21.3438 49.6876 21.5812L49.7063 22.1187V22.6875C49.7063 22.9562 49.7063 23.1562 49.7063 23.275L49.6876 23.8125L49.6063 24.35L49.4376 24.75L49.1688 25.0688L48.7688 25.1688C48.5313 25.1688 48.3501 25.1 48.2188 24.9688C48.0876 24.8375 47.9813 24.6187 47.9376 24.3312C47.8876 24.0312 47.8563 23.7812 47.8376 23.5812C47.8188 23.3687 47.8188 23.0688 47.8188 22.6812Z" fill="#A4DA22"/>
</g>
<defs>
<clipPath id="clip0_57:1937">
<rect width="32" height="32" fill="white" transform="translate(27)"/>
</clipPath>
</defs>
</svg>
