<svg width="66" height="49" viewBox="0 0 66 49" fill="none" xmlns="http://www.w3.org/2000/svg">
<path d="M34.9851 28.9783C30.1279 29.298 25.9926 30.4994 22.5276 32.5928C22.2028 32.7888 21.5479 33.2064 21.0736 33.5261C20.5992 33.8406 19.8825 34.3047 19.4751 34.5574C15.8606 36.8003 11.7459 38.4709 6.8681 39.6672C6.29576 39.8116 5.71826 39.9766 5.58419 40.0384C5.06341 40.2808 4.79529 40.7242 4.79529 41.3378C4.79529 42.1216 5.16138 42.8538 5.98123 43.7097C7.65185 45.4474 10.1784 46.5302 13.6125 46.9736C14.1694 47.0458 14.6695 47.0613 16.1133 47.0561C18.315 47.0509 19.2328 46.9891 19.9289 46.8086C20.3672 46.6952 20.5373 46.6745 21.089 46.6849C21.5634 46.6952 21.7284 46.6797 21.7233 46.6384C21.7129 46.5972 21.8161 46.5766 22.0481 46.5766C22.3214 46.5766 22.4194 46.6024 22.5689 46.7055C22.7648 46.8344 22.8422 46.8344 22.8422 46.7003C22.8422 46.6178 23.1103 46.623 25.0542 46.7313C25.6111 46.7622 25.9204 46.7622 26.0958 46.7209C26.3175 46.6694 26.4309 46.6797 26.9878 46.8086C27.4364 46.9066 27.622 46.9684 27.6065 47.0149C27.5756 47.087 28.0861 47.1953 28.4676 47.1953C28.5914 47.1953 28.8595 47.2314 29.0554 47.2727C30.3084 47.5408 31.2675 47.613 32.2523 47.5202C33.1186 47.4377 33.1701 47.4377 33.464 47.4789C33.7528 47.5253 34.7325 47.4274 34.8304 47.35C34.9387 47.2572 35.6709 47.3655 36.6609 47.6181C37.5065 47.8295 37.5169 47.8347 38.4914 47.8347C39.0328 47.8399 39.667 47.8089 39.9094 47.778C40.1517 47.7419 40.755 47.6645 41.25 47.6078C41.745 47.5511 42.2709 47.4789 42.4101 47.4531C42.9258 47.3552 43.3537 47.3397 44.0086 47.3964C45.0244 47.4892 45.0501 47.4944 45.1172 47.6594C45.1945 47.8502 45.2976 47.8708 45.9679 47.8347C46.5197 47.7986 47.0147 47.6749 47.3086 47.4841C47.3653 47.448 47.6231 47.3913 47.8758 47.3552C48.314 47.2881 49.1133 47.1386 50.8664 46.7777C51.9079 46.5663 52.769 46.4734 53.7384 46.4734C54.7748 46.4734 55.3987 46.36 55.7494 46.1022C55.8112 46.0558 55.9401 46.0558 56.265 46.0919C56.5073 46.1228 56.827 46.1228 56.9972 46.1022C57.2447 46.0661 57.3117 46.0764 57.3581 46.1383C57.4097 46.2105 57.4509 46.2002 57.6933 46.0764C57.9562 45.9424 57.9923 45.8959 58.2501 45.4164C58.4048 45.1328 58.575 44.8544 58.6317 44.7925C58.7503 44.6688 58.7606 44.3903 58.6575 44.1738C58.6162 44.0913 58.5079 43.8386 58.4151 43.6169C58.3223 43.39 58.1161 43.0084 57.9511 42.7661C57.6675 42.3433 57.4458 42.0803 56.1928 40.6366C55.244 39.5538 54.5892 39.0742 52.9804 38.2802C52.0111 37.8006 51.9131 37.7388 51.382 37.2695C50.7065 36.6714 50.3301 36.3981 49.8094 36.1145C49.5515 35.9753 49.3865 35.8516 49.3195 35.7381L49.2215 35.568L49.3608 35.6608C49.4381 35.7072 49.5567 35.7845 49.6289 35.8309C49.7011 35.8774 49.7578 35.9031 49.7578 35.8877C49.7578 35.7897 49.1545 34.5574 48.9792 34.2892C48.8606 34.1139 48.4584 33.6653 48.0872 33.2941C47.5148 32.7269 47.2776 32.5361 46.5351 32.0411C45.1739 31.1439 43.9467 30.5613 42.1162 29.9528C40.6467 29.4578 39.4247 29.1639 38.2542 29.0195C37.6715 28.9474 35.7947 28.9216 34.9851 28.9783Z" fill="#A4DA22"/>
<path d="M34.9851 28.9783C30.1279 29.298 25.9926 30.4994 22.5276 32.5928C22.2028 32.7888 21.5479 33.2064 21.0736 33.5261C20.5992 33.8406 19.8825 34.3047 19.4751 34.5574C15.8606 36.8003 11.7459 38.4709 6.8681 39.6672C6.29576 39.8116 5.71826 39.9766 5.58419 40.0384C5.06341 40.2808 4.79529 40.7242 4.79529 41.3378C4.79529 42.1216 5.16138 42.8538 5.98123 43.7097C7.65185 45.4474 10.1784 46.5302 13.6125 46.9736C14.1694 47.0458 14.6695 47.0613 16.1133 47.0561C18.315 47.0509 19.2328 46.9891 19.9289 46.8086C20.3672 46.6952 20.5373 46.6745 21.089 46.6849C21.5634 46.6952 21.7284 46.6797 21.7233 46.6384C21.7129 46.5972 21.8161 46.5766 22.0481 46.5766C22.3214 46.5766 22.4194 46.6024 22.5689 46.7055C22.7648 46.8344 22.8422 46.8344 22.8422 46.7003C22.8422 46.6178 23.1103 46.623 25.0542 46.7313C25.6111 46.7622 25.9204 46.7622 26.0958 46.7209C26.3175 46.6694 26.4309 46.6797 26.9878 46.8086C27.4364 46.9066 27.622 46.9684 27.6065 47.0149C27.5756 47.087 28.0861 47.1953 28.4676 47.1953C28.5914 47.1953 28.8595 47.2314 29.0554 47.2727C30.3084 47.5408 31.2675 47.613 32.2523 47.5202C33.1186 47.4377 33.1701 47.4377 33.464 47.4789C33.7528 47.5253 34.7325 47.4274 34.8304 47.35C34.9387 47.2572 35.6709 47.3655 36.6609 47.6181C37.5065 47.8295 37.5169 47.8347 38.4914 47.8347C39.0328 47.8399 39.667 47.8089 39.9094 47.778C40.1517 47.7419 40.755 47.6645 41.25 47.6078C41.745 47.5511 42.2709 47.4789 42.4101 47.4531C42.9258 47.3552 43.3537 47.3397 44.0086 47.3964C45.0244 47.4892 45.0501 47.4944 45.1172 47.6594C45.1945 47.8502 45.2976 47.8708 45.9679 47.8347C46.5197 47.7986 47.0147 47.6749 47.3086 47.4841C47.3653 47.448 47.6231 47.3913 47.8758 47.3552C48.314 47.2881 49.1133 47.1386 50.8664 46.7777C51.9079 46.5663 52.769 46.4734 53.7384 46.4734C54.7748 46.4734 55.3987 46.36 55.7494 46.1022C55.8112 46.0558 55.9401 46.0558 56.265 46.0919C56.5073 46.1228 56.827 46.1228 56.9972 46.1022C57.2447 46.0661 57.3117 46.0764 57.3581 46.1383C57.4097 46.2105 57.4509 46.2002 57.6933 46.0764C57.9562 45.9424 57.9923 45.8959 58.2501 45.4164C58.4048 45.1328 58.575 44.8544 58.6317 44.7925C58.7503 44.6688 58.7606 44.3903 58.6575 44.1738C58.6162 44.0913 58.5079 43.8386 58.4151 43.6169C58.3223 43.39 58.1161 43.0084 57.9511 42.7661C57.6675 42.3433 57.4458 42.0803 56.1928 40.6366C55.244 39.5538 54.5892 39.0742 52.9804 38.2802C52.0111 37.8006 51.9131 37.7388 51.382 37.2695C50.7065 36.6714 50.3301 36.3981 49.8094 36.1145C49.5515 35.9753 49.3865 35.8516 49.3195 35.7381L49.2215 35.568L49.3608 35.6608C49.4381 35.7072 49.5567 35.7845 49.6289 35.8309C49.7011 35.8774 49.7578 35.9031 49.7578 35.8877C49.7578 35.7897 49.1545 34.5574 48.9792 34.2892C48.8606 34.1139 48.4584 33.6653 48.0872 33.2941C47.5148 32.7269 47.2776 32.5361 46.5351 32.0411C45.1739 31.1439 43.9467 30.5613 42.1162 29.9528C40.6467 29.4578 39.4247 29.1639 38.2542 29.0195C37.6715 28.9474 35.7947 28.9216 34.9851 28.9783Z" fill="black" fill-opacity="0.2"/>
<g clip-path="url(#clip0_57:1976)">
<path d="M48.375 23.4584V7.79175C48.375 4.54091 45.7509 1.91675 42.5 1.91675C39.2492 1.91675 36.625 4.54091 36.625 7.79175V23.4584C34.2555 25.2405 32.7084 28.0997 32.7084 31.2917C32.7084 36.6967 37.095 41.0834 42.5 41.0834C47.905 41.0834 52.2917 36.6967 52.2917 31.2917C52.2917 28.0997 50.7446 25.2405 48.375 23.4584ZM40.5417 7.79175C40.5417 6.71466 41.423 5.83341 42.5 5.83341C43.5771 5.83341 44.4584 6.71466 44.4584 7.79175H42.5V9.75008H44.4584V13.6667H42.5V15.6251H44.4584V19.5417H40.5417V7.79175Z" fill="#A4DA22"/>
</g>
<defs>
<clipPath id="clip0_57:1976">
<rect width="43" height="43" fill="white" transform="translate(21)"/>
</clipPath>
</defs>
</svg>
