<svg width="66" height="33" viewBox="0 0 66 33" fill="none" xmlns="http://www.w3.org/2000/svg">
<path d="M34.9851 12.9783C30.1279 13.298 25.9926 14.4994 22.5276 16.5928C22.2028 16.7888 21.5479 17.2064 21.0736 17.5261C20.5992 17.8406 19.8825 18.3047 19.4751 18.5574C15.8606 20.8003 11.7459 22.4709 6.8681 23.6672C6.29576 23.8116 5.71826 23.9766 5.58419 24.0384C5.06341 24.2808 4.79529 24.7242 4.79529 25.3378C4.79529 26.1216 5.16138 26.8538 5.98123 27.7097C7.65185 29.4474 10.1784 30.5302 13.6125 30.9736C14.1694 31.0458 14.6695 31.0613 16.1133 31.0561C18.315 31.0509 19.2328 30.9891 19.9289 30.8086C20.3672 30.6952 20.5373 30.6745 21.089 30.6849C21.5634 30.6952 21.7284 30.6797 21.7233 30.6384C21.7129 30.5972 21.8161 30.5766 22.0481 30.5766C22.3214 30.5766 22.4194 30.6024 22.5689 30.7055C22.7648 30.8344 22.8422 30.8344 22.8422 30.7003C22.8422 30.6178 23.1103 30.623 25.0542 30.7313C25.6111 30.7622 25.9204 30.7622 26.0958 30.7209C26.3175 30.6694 26.4309 30.6797 26.9878 30.8086C27.4364 30.9066 27.622 30.9684 27.6065 31.0149C27.5756 31.087 28.0861 31.1953 28.4676 31.1953C28.5914 31.1953 28.8595 31.2314 29.0554 31.2727C30.3084 31.5408 31.2675 31.613 32.2523 31.5202C33.1186 31.4377 33.1701 31.4377 33.464 31.4789C33.7528 31.5253 34.7325 31.4274 34.8304 31.35C34.9387 31.2572 35.6709 31.3655 36.6609 31.6181C37.5065 31.8295 37.5169 31.8347 38.4914 31.8347C39.0328 31.8399 39.667 31.8089 39.9094 31.778C40.1517 31.7419 40.755 31.6645 41.25 31.6078C41.745 31.5511 42.2709 31.4789 42.4101 31.4531C42.9258 31.3552 43.3537 31.3397 44.0086 31.3964C45.0244 31.4892 45.0501 31.4944 45.1172 31.6594C45.1945 31.8502 45.2976 31.8708 45.9679 31.8347C46.5197 31.7986 47.0147 31.6749 47.3086 31.4841C47.3653 31.448 47.6231 31.3913 47.8758 31.3552C48.314 31.2881 49.1133 31.1386 50.8664 30.7777C51.9079 30.5663 52.769 30.4734 53.7384 30.4734C54.7748 30.4734 55.3987 30.36 55.7494 30.1022C55.8112 30.0558 55.9401 30.0558 56.265 30.0919C56.5073 30.1228 56.827 30.1228 56.9972 30.1022C57.2447 30.0661 57.3117 30.0764 57.3581 30.1383C57.4097 30.2105 57.4509 30.2002 57.6933 30.0764C57.9562 29.9424 57.9923 29.8959 58.2501 29.4164C58.4048 29.1328 58.575 28.8544 58.6317 28.7925C58.7503 28.6688 58.7606 28.3903 58.6575 28.1738C58.6162 28.0913 58.5079 27.8386 58.4151 27.6169C58.3223 27.39 58.1161 27.0084 57.9511 26.7661C57.6675 26.3433 57.4458 26.0803 56.1928 24.6366C55.244 23.5538 54.5892 23.0742 52.9804 22.2802C52.0111 21.8006 51.9131 21.7388 51.382 21.2695C50.7065 20.6714 50.3301 20.3981 49.8094 20.1145C49.5515 19.9753 49.3865 19.8516 49.3195 19.7381L49.2215 19.568L49.3608 19.6608C49.4381 19.7072 49.5567 19.7845 49.6289 19.8309C49.7011 19.8774 49.7578 19.9031 49.7578 19.8877C49.7578 19.7897 49.1545 18.5574 48.9792 18.2892C48.8606 18.1139 48.4584 17.6653 48.0872 17.2941C47.5148 16.7269 47.2776 16.5361 46.5351 16.0411C45.1739 15.1439 43.9467 14.5613 42.1162 13.9528C40.6467 13.4578 39.4247 13.1639 38.2542 13.0195C37.6715 12.9474 35.7947 12.9216 34.9851 12.9783Z" fill="#A4DA22"/>
<path d="M34.9851 12.9783C30.1279 13.298 25.9926 14.4994 22.5276 16.5928C22.2028 16.7888 21.5479 17.2064 21.0736 17.5261C20.5992 17.8406 19.8825 18.3047 19.4751 18.5574C15.8606 20.8003 11.7459 22.4709 6.8681 23.6672C6.29576 23.8116 5.71826 23.9766 5.58419 24.0384C5.06341 24.2808 4.79529 24.7242 4.79529 25.3378C4.79529 26.1216 5.16138 26.8538 5.98123 27.7097C7.65185 29.4474 10.1784 30.5302 13.6125 30.9736C14.1694 31.0458 14.6695 31.0613 16.1133 31.0561C18.315 31.0509 19.2328 30.9891 19.9289 30.8086C20.3672 30.6952 20.5373 30.6745 21.089 30.6849C21.5634 30.6952 21.7284 30.6797 21.7233 30.6384C21.7129 30.5972 21.8161 30.5766 22.0481 30.5766C22.3214 30.5766 22.4194 30.6024 22.5689 30.7055C22.7648 30.8344 22.8422 30.8344 22.8422 30.7003C22.8422 30.6178 23.1103 30.623 25.0542 30.7313C25.6111 30.7622 25.9204 30.7622 26.0958 30.7209C26.3175 30.6694 26.4309 30.6797 26.9878 30.8086C27.4364 30.9066 27.622 30.9684 27.6065 31.0149C27.5756 31.087 28.0861 31.1953 28.4676 31.1953C28.5914 31.1953 28.8595 31.2314 29.0554 31.2727C30.3084 31.5408 31.2675 31.613 32.2523 31.5202C33.1186 31.4377 33.1701 31.4377 33.464 31.4789C33.7528 31.5253 34.7325 31.4274 34.8304 31.35C34.9387 31.2572 35.6709 31.3655 36.6609 31.6181C37.5065 31.8295 37.5169 31.8347 38.4914 31.8347C39.0328 31.8399 39.667 31.8089 39.9094 31.778C40.1517 31.7419 40.755 31.6645 41.25 31.6078C41.745 31.5511 42.2709 31.4789 42.4101 31.4531C42.9258 31.3552 43.3537 31.3397 44.0086 31.3964C45.0244 31.4892 45.0501 31.4944 45.1172 31.6594C45.1945 31.8502 45.2976 31.8708 45.9679 31.8347C46.5197 31.7986 47.0147 31.6749 47.3086 31.4841C47.3653 31.448 47.6231 31.3913 47.8758 31.3552C48.314 31.2881 49.1133 31.1386 50.8664 30.7777C51.9079 30.5663 52.769 30.4734 53.7384 30.4734C54.7748 30.4734 55.3987 30.36 55.7494 30.1022C55.8112 30.0558 55.9401 30.0558 56.265 30.0919C56.5073 30.1228 56.827 30.1228 56.9972 30.1022C57.2447 30.0661 57.3117 30.0764 57.3581 30.1383C57.4097 30.2105 57.4509 30.2002 57.6933 30.0764C57.9562 29.9424 57.9923 29.8959 58.2501 29.4164C58.4048 29.1328 58.575 28.8544 58.6317 28.7925C58.7503 28.6688 58.7606 28.3903 58.6575 28.1738C58.6162 28.0913 58.5079 27.8386 58.4151 27.6169C58.3223 27.39 58.1161 27.0084 57.9511 26.7661C57.6675 26.3433 57.4458 26.0803 56.1928 24.6366C55.244 23.5538 54.5892 23.0742 52.9804 22.2802C52.0111 21.8006 51.9131 21.7388 51.382 21.2695C50.7065 20.6714 50.3301 20.3981 49.8094 20.1145C49.5515 19.9753 49.3865 19.8516 49.3195 19.7381L49.2215 19.568L49.3608 19.6608C49.4381 19.7072 49.5567 19.7845 49.6289 19.8309C49.7011 19.8774 49.7578 19.9031 49.7578 19.8877C49.7578 19.7897 49.1545 18.5574 48.9792 18.2892C48.8606 18.1139 48.4584 17.6653 48.0872 17.2941C47.5148 16.7269 47.2776 16.5361 46.5351 16.0411C45.1739 15.1439 43.9467 14.5613 42.1162 13.9528C40.6467 13.4578 39.4247 13.1639 38.2542 13.0195C37.6715 12.9474 35.7947 12.9216 34.9851 12.9783Z" fill="black" fill-opacity="0.2"/>
</svg>
