<svg width="32" height="32" viewBox="0 0 32 32" fill="none" xmlns="http://www.w3.org/2000/svg">
<g clip-path="url(#clip0_57:1885)">
<path d="M3.60632 19.6187C3.60632 18.15 4.00632 16.4562 4.81257 14.55C5.61257 12.6438 6.65007 10.7875 7.92507 9.0125C10.5376 5.56875 12.8063 2.95625 14.7188 1.2L15.9688 0C16.3876 0.4375 16.8563 0.8375 17.3563 1.20625C18.0438 1.9125 19.0938 3.0625 20.5001 4.7C21.9063 6.3375 23.1251 7.79375 24.1313 9.13125C25.3188 10.8188 26.3376 12.6438 27.1563 14.5688C27.9751 16.4937 28.3938 18.1813 28.3938 19.6375C28.3938 21.3125 28.0751 22.9 27.4251 24.425C26.7751 25.9437 25.9001 27.2687 24.8001 28.375C23.6938 29.4813 22.3751 30.3625 20.8376 31.0187C19.3001 31.6687 17.6751 32.0062 15.9688 32.0062C14.2938 32.0062 12.7063 31.6875 11.1876 31.05C9.66257 30.4125 8.34382 29.5625 7.23757 28.4562C6.13132 27.3687 5.25007 26.05 4.59382 24.525C3.93757 23 3.60632 21.3625 3.60632 19.6187Z" fill="#A4DA22"/>
<path d="M14.4073 19.377C14.4073 20.5208 14.1476 21.4346 13.6281 22.1182C13.1085 22.7972 12.4113 23.1367 11.5363 23.1367C10.7251 23.1367 10.0756 22.8701 9.58801 22.3369V25.8438H7.92688V15.6035H9.45813L9.52649 16.3555C10.0141 15.763 10.6772 15.4668 11.5157 15.4668C12.4181 15.4668 13.1245 15.804 13.6349 16.4785C14.1499 17.1484 14.4073 18.0804 14.4073 19.2744V19.377ZM12.7531 19.2334C12.7531 18.4951 12.6049 17.9095 12.3087 17.4766C12.017 17.0436 11.5978 16.8271 11.0509 16.8271C10.3719 16.8271 9.88424 17.1074 9.58801 17.668V20.9492C9.88879 21.5234 10.381 21.8105 11.0646 21.8105C11.5932 21.8105 12.0057 21.5986 12.3019 21.1748C12.6027 20.7464 12.7531 20.0993 12.7531 19.2334Z" fill="#A4DA22"/>
<path d="M14.4073 19.377C14.4073 20.5208 14.1476 21.4346 13.6281 22.1182C13.1085 22.7972 12.4113 23.1367 11.5363 23.1367C10.7251 23.1367 10.0756 22.8701 9.58801 22.3369V25.8438H7.92688V15.6035H9.45813L9.52649 16.3555C10.0141 15.763 10.6772 15.4668 11.5157 15.4668C12.4181 15.4668 13.1245 15.804 13.6349 16.4785C14.1499 17.1484 14.4073 18.0804 14.4073 19.2744V19.377ZM12.7531 19.2334C12.7531 18.4951 12.6049 17.9095 12.3087 17.4766C12.017 17.0436 11.5978 16.8271 11.0509 16.8271C10.3719 16.8271 9.88424 17.1074 9.58801 17.668V20.9492C9.88879 21.5234 10.381 21.8105 11.0646 21.8105C11.5932 21.8105 12.0057 21.5986 12.3019 21.1748C12.6027 20.7464 12.7531 20.0993 12.7531 19.2334Z" fill="black" fill-opacity="0.3"/>
<path d="M23.882 23H22.1593V18.5771H17.7091V23H15.9796V13.0469H17.7091V17.1895H22.1593V13.0469H23.882V23Z" fill="#A4DA22"/>
<path d="M23.882 23H22.1593V18.5771H17.7091V23H15.9796V13.0469H17.7091V17.1895H22.1593V13.0469H23.882V23Z" fill="black" fill-opacity="0.3"/>
</g>
<defs>
<clipPath id="clip0_57:1885">
<rect width="32" height="32" fill="white"/>
</clipPath>
</defs>
</svg>
