<svg width="46" height="46" viewBox="0 0 46 46" fill="none" xmlns="http://www.w3.org/2000/svg">
<path d="M22.9999 11.5C26.0499 11.5 28.9749 12.7116 31.1316 14.8683C33.2883 17.0249 34.4999 19.95 34.4999 23C34.4999 27.255 32.1807 30.9733 28.7499 32.9667V36.4167C28.7499 36.925 28.5479 37.4125 28.1885 37.7719C27.8291 38.1314 27.3415 38.3333 26.8332 38.3333H19.1665C18.6582 38.3333 18.1707 38.1314 17.8113 37.7719C17.4518 37.4125 17.2499 36.925 17.2499 36.4167V32.9667C13.819 30.9733 11.4999 27.255 11.4999 23C11.4999 19.95 12.7115 17.0249 14.8681 14.8683C17.0248 12.7116 19.9499 11.5 22.9999 11.5ZM26.8332 40.25V42.1667C26.8332 42.675 26.6313 43.1625 26.2718 43.5219C25.9124 43.8814 25.4249 44.0833 24.9165 44.0833H21.0832C20.5749 44.0833 20.0874 43.8814 19.7279 43.5219C19.3685 43.1625 19.1665 42.675 19.1665 42.1667V40.25H26.8332Z" fill="#A4DA22"/>
<path d="M11.7021 24.042H9.22363V28.9727H7V16.1758H11.5C12.9766 16.1758 14.1162 16.5068 14.9189 17.1689C15.7217 17.8311 16.123 18.7891 16.123 20.043C16.123 20.8984 15.915 21.6162 15.499 22.1963C15.0889 22.7705 14.5146 23.2129 13.7764 23.5234L16.6504 28.8584V28.9727H14.2686L11.7021 24.042ZM9.22363 22.2578H11.5088C12.2588 22.2578 12.8447 22.0703 13.2666 21.6953C13.6885 21.3145 13.8994 20.7959 13.8994 20.1396C13.8994 19.4541 13.7031 18.9238 13.3105 18.5488C12.9238 18.1738 12.3438 17.9805 11.5703 17.9688H9.22363V22.2578Z" fill="#A4DA22"/>
<path d="M11.7021 24.042H9.22363V28.9727H7V16.1758H11.5C12.9766 16.1758 14.1162 16.5068 14.9189 17.1689C15.7217 17.8311 16.123 18.7891 16.123 20.043C16.123 20.8984 15.915 21.6162 15.499 22.1963C15.0889 22.7705 14.5146 23.2129 13.7764 23.5234L16.6504 28.8584V28.9727H14.2686L11.7021 24.042ZM9.22363 22.2578H11.5088C12.2588 22.2578 12.8447 22.0703 13.2666 21.6953C13.6885 21.3145 13.8994 20.7959 13.8994 20.1396C13.8994 19.4541 13.7031 18.9238 13.3105 18.5488C12.9238 18.1738 12.3438 17.9805 11.5703 17.9688H9.22363V22.2578Z" fill="black" fill-opacity="0.3"/>
<path d="M28.041 27.3115C27.5781 27.915 26.9365 28.3721 26.1162 28.6826C25.2959 28.9932 24.3643 29.1484 23.3213 29.1484C22.249 29.1484 21.2998 28.9053 20.4736 28.4189C19.6475 27.9326 19.0088 27.2383 18.5576 26.3359C18.1123 25.4277 17.8809 24.3701 17.8633 23.1631V22.1611C17.8633 20.2275 18.3262 18.7188 19.252 17.6348C20.1777 16.5449 21.4697 16 23.1279 16C24.5518 16 25.6826 16.3516 26.5205 17.0547C27.3584 17.7578 27.8623 18.7715 28.0322 20.0957H25.8525C25.6064 18.5547 24.7129 17.7842 23.1719 17.7842C22.1758 17.7842 21.417 18.1445 20.8955 18.8652C20.3799 19.5801 20.1133 20.6318 20.0957 22.0205V23.0049C20.0957 24.3877 20.3857 25.4629 20.9658 26.2305C21.5518 26.9922 22.3633 27.373 23.4004 27.373C24.5371 27.373 25.3457 27.1152 25.8262 26.5996V24.0947H23.1895V22.4072H28.041V27.3115Z" fill="#A4DA22"/>
<path d="M28.041 27.3115C27.5781 27.915 26.9365 28.3721 26.1162 28.6826C25.2959 28.9932 24.3643 29.1484 23.3213 29.1484C22.249 29.1484 21.2998 28.9053 20.4736 28.4189C19.6475 27.9326 19.0088 27.2383 18.5576 26.3359C18.1123 25.4277 17.8809 24.3701 17.8633 23.1631V22.1611C17.8633 20.2275 18.3262 18.7188 19.252 17.6348C20.1777 16.5449 21.4697 16 23.1279 16C24.5518 16 25.6826 16.3516 26.5205 17.0547C27.3584 17.7578 27.8623 18.7715 28.0322 20.0957H25.8525C25.6064 18.5547 24.7129 17.7842 23.1719 17.7842C22.1758 17.7842 21.417 18.1445 20.8955 18.8652C20.3799 19.5801 20.1133 20.6318 20.0957 22.0205V23.0049C20.0957 24.3877 20.3857 25.4629 20.9658 26.2305C21.5518 26.9922 22.3633 27.373 23.4004 27.373C24.5371 27.373 25.3457 27.1152 25.8262 26.5996V24.0947H23.1895V22.4072H28.041V27.3115Z" fill="black" fill-opacity="0.3"/>
<path d="M30.4844 28.9727V16.1758H34.8701C36.3174 16.1758 37.4189 16.4658 38.1748 17.0459C38.9307 17.626 39.3086 18.4902 39.3086 19.6387C39.3086 20.2246 39.1504 20.752 38.834 21.2207C38.5176 21.6895 38.0547 22.0527 37.4453 22.3105C38.1367 22.498 38.6699 22.8525 39.0449 23.374C39.4258 23.8896 39.6162 24.5107 39.6162 25.2373C39.6162 26.4385 39.2295 27.3613 38.4561 28.0059C37.6885 28.6504 36.5869 28.9727 35.1514 28.9727H30.4844ZM32.708 23.1982V27.1973H35.1777C35.875 27.1973 36.4199 27.0244 36.8125 26.6787C37.2051 26.333 37.4014 25.8525 37.4014 25.2373C37.4014 23.9072 36.7217 23.2275 35.3623 23.1982H32.708ZM32.708 21.5635H34.8877C35.5791 21.5635 36.1182 21.4082 36.5049 21.0977C36.8975 20.7812 37.0938 20.3359 37.0938 19.7617C37.0938 19.1289 36.9121 18.6719 36.5488 18.3906C36.1914 18.1094 35.6318 17.9688 34.8701 17.9688H32.708V21.5635Z" fill="#A4DA22"/>
<path d="M30.4844 28.9727V16.1758H34.8701C36.3174 16.1758 37.4189 16.4658 38.1748 17.0459C38.9307 17.626 39.3086 18.4902 39.3086 19.6387C39.3086 20.2246 39.1504 20.752 38.834 21.2207C38.5176 21.6895 38.0547 22.0527 37.4453 22.3105C38.1367 22.498 38.6699 22.8525 39.0449 23.374C39.4258 23.8896 39.6162 24.5107 39.6162 25.2373C39.6162 26.4385 39.2295 27.3613 38.4561 28.0059C37.6885 28.6504 36.5869 28.9727 35.1514 28.9727H30.4844ZM32.708 23.1982V27.1973H35.1777C35.875 27.1973 36.4199 27.0244 36.8125 26.6787C37.2051 26.333 37.4014 25.8525 37.4014 25.2373C37.4014 23.9072 36.7217 23.2275 35.3623 23.1982H32.708ZM32.708 21.5635H34.8877C35.5791 21.5635 36.1182 21.4082 36.5049 21.0977C36.8975 20.7812 37.0938 20.3359 37.0938 19.7617C37.0938 19.1289 36.9121 18.6719 36.5488 18.3906C36.1914 18.1094 35.6318 17.9688 34.8701 17.9688H32.708V21.5635Z" fill="black" fill-opacity="0.3"/>
</svg>
