<svg width="32" height="32" viewBox="0 0 32 32" fill="none" xmlns="http://www.w3.org/2000/svg">
<g clip-path="url(#clip0_57:1903)">
<path d="M3.6062 19.6187C3.6062 18.15 4.0062 16.4562 4.81245 14.55C5.61245 12.6438 6.64995 10.7875 7.92495 9.0125C10.5375 5.56875 12.8062 2.95625 14.7187 1.2L15.9687 0C16.3875 0.4375 16.8562 0.8375 17.3562 1.20625C18.0437 1.9125 19.0937 3.0625 20.5 4.7C21.9062 6.3375 23.125 7.79375 24.1312 9.13125C25.3187 10.8188 26.3375 12.6438 27.1562 14.5688C27.975 16.4937 28.3937 18.1813 28.3937 19.6375C28.3937 21.3125 28.0749 22.9 27.4249 24.425C26.775 25.9437 25.9 27.2687 24.7999 28.375C23.6937 29.4813 22.375 30.3625 20.8375 31.0187C19.2999 31.6687 17.675 32.0062 15.9687 32.0062C14.2937 32.0062 12.7062 31.6875 11.1875 31.05C9.66245 30.4125 8.3437 29.5625 7.23745 28.4562C6.1312 27.3687 5.24995 26.05 4.5937 24.525C3.93745 23 3.6062 21.3625 3.6062 19.6187Z" fill="#A4DA22"/>
</g>
<defs>
<clipPath id="clip0_57:1903">
<rect width="32" height="32" fill="white"/>
</clipPath>
</defs>
</svg>
