<?xml version="1.0" standalone="no"?>
<!DOCTYPE svg PUBLIC "-//W3C//DTD SVG 20010904//EN"
 "http://www.w3.org/TR/2001/REC-SVG-20010904/DTD/svg10.dtd">
<svg version="1.0" xmlns="http://www.w3.org/2000/svg"
 width="822.000000pt" height="822.000000pt" viewBox="0 0 822.000000 822.000000"
 preserveAspectRatio="xMidYMid meet">
<metadata>
Created by potrace 1.14, written by Peter Selinger 2001-2017
</metadata>
<g transform="translate(0.000000,822.000000) scale(0.100000,-0.100000)"
fill="#000000" stroke="none">
<path d="M2033 8043 c-12 -18 -17 -57 -19 -156 -2 -73 -6 -145 -9 -162 -3 -16
-8 -50 -11 -75 -6 -51 -8 -64 -17 -100 -4 -14 -9 -36 -11 -50 -7 -38 -13 -60
-30 -125 -9 -33 -19 -69 -21 -80 -5 -21 -52 -169 -62 -195 -3 -8 -7 -19 -8
-25 -2 -5 -14 -41 -28 -80 -14 -38 -38 -106 -53 -150 -16 -44 -32 -83 -37 -86
-5 -3 -9 -10 -9 -15 0 -5 -4 -19 -9 -32 -5 -13 -9 -26 -9 -29 0 -3 -6 -19 -14
-36 -8 -18 -25 -59 -37 -92 -13 -33 -27 -61 -31 -63 -5 -2 -8 -10 -8 -18 0 -8
-8 -34 -19 -57 -10 -23 -38 -87 -61 -142 -24 -55 -54 -125 -68 -155 -14 -30
-25 -61 -25 -67 0 -7 -3 -13 -7 -13 -7 0 -35 -71 -32 -82 1 -5 -2 -8 -6 -8 -9
0 -37 -70 -34 -82 1 -5 -2 -8 -8 -8 -5 0 -10 -9 -10 -20 0 -11 -4 -20 -8 -20
-5 0 -9 -6 -9 -12 0 -13 -6 -27 -63 -153 -15 -33 -46 -103 -68 -155 -23 -52
-49 -113 -58 -135 -10 -22 -19 -44 -20 -50 -3 -12 -78 -197 -98 -240 -15 -35
-40 -98 -42 -105 0 -3 -5 -16 -11 -30 -30 -71 -113 -302 -113 -313 0 -7 -4
-17 -9 -22 -6 -8 -60 -165 -66 -195 -1 -3 -11 -39 -24 -80 -13 -41 -29 -95
-36 -120 -7 -25 -18 -65 -26 -90 -7 -25 -13 -50 -15 -56 -1 -7 -10 -45 -19
-85 -9 -41 -19 -85 -21 -99 -2 -14 -7 -36 -10 -50 -8 -34 -12 -58 -19 -105 -9
-61 -14 -98 -20 -125 -5 -27 -16 -152 -20 -221 -1 -25 -5 -51 -9 -57 -4 -7 -4
-12 1 -12 4 0 8 -18 8 -40 0 -22 -4 -40 -8 -40 -5 0 -6 -4 -2 -9 10 -17 13
-71 3 -71 -5 0 -6 -5 -2 -11 4 -6 8 -34 9 -63 3 -57 14 -164 19 -193 2 -10 7
-38 10 -63 6 -47 12 -77 21 -120 4 -14 8 -36 11 -50 9 -43 35 -144 41 -160 3
-8 7 -20 9 -27 4 -22 36 -118 43 -128 3 -5 6 -12 6 -15 1 -11 39 -105 44 -110
4 -3 7 -10 8 -16 1 -7 14 -37 28 -67 14 -31 25 -60 25 -66 0 -5 3 -11 8 -13 4
-2 19 -25 33 -53 49 -94 141 -248 159 -265 3 -3 22 -31 43 -62 21 -31 47 -67
58 -79 10 -12 19 -25 19 -28 0 -3 13 -20 28 -37 15 -18 47 -56 72 -85 56 -68
289 -301 354 -354 26 -22 58 -49 70 -60 12 -11 37 -31 56 -45 18 -14 44 -35
59 -47 14 -13 29 -23 33 -23 4 0 13 -6 20 -13 7 -7 56 -42 108 -78 52 -35 97
-67 98 -72 2 -4 8 -5 13 -1 5 3 9 0 9 -5 0 -6 7 -11 15 -11 8 0 15 -4 15 -10
0 -5 6 -10 14 -10 7 0 19 -7 26 -15 7 -8 16 -13 20 -10 4 2 15 -4 24 -14 10
-11 25 -18 34 -16 9 2 20 4 25 4 18 2 -11 139 -44 203 -5 10 -9 26 -9 36 0 10
-3 22 -7 26 -5 4 -8 11 -9 14 0 4 -17 61 -38 126 -21 66 -39 125 -40 130 -9
47 -66 176 -78 176 -4 0 -8 5 -8 10 0 6 -18 38 -40 71 -22 33 -40 64 -40 68 0
5 -7 14 -15 21 -9 7 -13 15 -10 18 3 3 -1 12 -9 21 -39 43 -228 461 -241 531
0 3 -10 34 -22 70 -20 63 -33 108 -40 140 -7 37 -32 157 -34 163 -33 108 -42
588 -14 752 2 17 7 44 9 60 10 71 27 169 31 175 2 3 6 17 8 31 15 80 92 337
125 419 6 14 20 50 32 80 24 62 28 71 64 153 59 131 80 172 90 179 6 4 8 8 4
8 -7 0 29 79 41 90 4 3 16 25 29 50 13 25 39 72 58 105 19 33 40 71 46 85 7
14 15 27 18 30 9 9 60 89 60 95 0 3 9 15 20 27 11 12 20 28 20 35 0 7 4 13 9
13 5 0 14 14 21 30 7 17 16 30 21 30 5 0 9 7 9 15 0 8 4 15 9 15 5 0 12 8 16
19 5 16 16 31 55 78 5 7 10 15 10 18 0 6 100 146 110 155 3 3 22 27 41 54 34
50 56 77 96 123 12 14 25 33 28 42 2 9 14 22 26 29 18 12 18 8 -7 -35 -15 -26
-31 -53 -36 -59 -10 -14 -88 -160 -130 -244 -18 -36 -36 -66 -40 -68 -5 -2 -8
-9 -8 -15 0 -7 -16 -45 -35 -84 -19 -40 -35 -77 -35 -83 0 -5 -4 -10 -8 -10
-5 0 -9 -6 -9 -13 0 -7 -9 -33 -20 -58 -27 -57 -45 -99 -72 -174 -12 -33 -31
-82 -41 -110 -20 -53 -72 -220 -76 -244 -2 -8 -5 -25 -9 -38 -3 -13 -6 -26 -6
-30 -1 -5 -5 -19 -10 -32 -5 -13 -12 -40 -15 -60 -7 -39 -7 -41 -17 -86 -7
-32 -16 -91 -23 -140 -2 -16 -6 -46 -9 -65 -15 -99 -26 -365 -17 -403 8 -31
24 -13 49 53 36 97 131 286 184 367 27 40 46 73 43 73 -5 0 10 19 37 48 9 9
22 27 28 40 14 26 34 53 69 88 12 13 22 26 22 29 0 4 6 12 12 19 7 7 33 37 58
65 75 88 239 249 380 375 35 31 180 147 214 171 15 11 34 25 40 31 20 19 249
170 269 177 9 3 17 11 17 17 0 5 9 10 19 10 11 0 21 4 23 8 2 5 23 20 48 34
25 14 61 34 80 45 19 11 62 35 95 53 33 18 65 37 71 42 7 5 21 11 33 13 12 2
28 11 37 19 8 9 24 16 34 16 10 0 20 4 22 8 4 10 288 147 296 143 1 -1 10 5
18 14 9 8 21 15 29 15 7 0 52 18 100 40 47 23 110 50 138 61 29 11 66 27 82
34 17 7 55 25 86 39 70 31 90 69 61 120 -9 17 -20 33 -23 36 -3 3 -25 34 -50
69 -24 35 -51 73 -59 85 -8 11 -20 25 -27 29 -7 4 -13 14 -13 22 0 7 -4 15 -8
17 -4 2 -34 37 -67 78 -33 41 -64 80 -70 86 -5 7 -27 32 -47 55 -59 70 -69 81
-153 175 -83 92 -363 375 -450 454 -112 102 -174 158 -234 210 -35 30 -74 65
-87 78 -13 12 -26 22 -29 22 -3 0 -17 10 -30 23 -62 57 -82 74 -114 96 -18 13
-46 36 -62 50 -40 37 -57 51 -63 51 -7 0 -45 31 -65 53 -8 9 -19 17 -23 17 -5
0 -16 8 -26 18 -30 28 -62 52 -68 52 -4 0 -17 11 -30 26 -13 14 -24 22 -24 19
0 -4 -22 12 -49 34 -27 23 -52 41 -55 41 -3 0 -15 8 -25 18 -33 29 -49 41 -98
74 -48 33 -123 87 -156 114 -9 8 -21 14 -25 14 -5 0 -17 8 -28 18 -25 24 -119
88 -119 82 0 -3 -14 7 -30 23 -16 15 -33 27 -36 27 -5 0 -23 13 -66 50 -7 6
-13 8 -13 4 0 -4 -8 0 -17 8 -57 49 -125 59 -150 21z"/>
<path d="M7266 6572 c-219 -207 -539 -400 -956 -579 -19 -8 -52 -23 -72 -34
-21 -10 -38 -16 -38 -13 0 3 -10 -2 -22 -10 -12 -9 -30 -16 -40 -16 -10 0 -18
-4 -18 -9 0 -5 -13 -12 -30 -16 -16 -3 -48 -16 -72 -28 -24 -11 -47 -22 -53
-23 -11 -2 -407 -159 -440 -174 -33 -15 -409 -161 -420 -164 -5 -1 -25 -9 -44
-19 -19 -9 -38 -17 -43 -17 -7 0 -336 -135 -468 -192 -77 -33 -84 -36 -117
-50 -18 -7 -33 -16 -33 -19 0 -3 -6 -6 -12 -6 -27 -1 -420 -192 -593 -289 -60
-33 -126 -69 -145 -80 -19 -10 -37 -21 -40 -24 -7 -8 -102 -64 -122 -72 -10
-4 -18 -12 -18 -18 0 -5 -5 -10 -11 -10 -6 0 -42 -22 -80 -50 -38 -27 -73 -50
-78 -50 -5 0 -11 -3 -13 -8 -2 -6 -62 -54 -157 -127 -24 -19 -306 -299 -331
-330 -76 -92 -104 -130 -173 -232 -42 -62 -73 -113 -70 -113 3 0 -1 -8 -10
-17 -19 -22 -116 -215 -152 -303 -14 -36 -32 -78 -39 -95 -8 -16 -20 -48 -27
-70 -13 -40 -14 -44 -23 -80 -2 -11 -9 -31 -14 -46 -19 -47 -72 -282 -86 -374
-2 -16 -5 -30 -6 -30 -1 0 -3 -20 -6 -45 -2 -25 -6 -65 -9 -90 -22 -225 -23
-592 0 -708 2 -13 5 -45 7 -73 2 -27 5 -49 8 -49 3 0 5 -15 5 -32 1 -18 5 -55
9 -83 5 -27 10 -63 12 -80 2 -16 8 -43 14 -60 5 -16 11 -43 14 -60 7 -44 52
-219 74 -292 6 -17 8 -34 4 -37 -3 -3 0 -6 6 -6 7 0 12 -6 12 -14 0 -7 24 -87
53 -177 50 -154 79 -247 80 -259 0 -3 6 -18 13 -35 7 -16 13 -34 14 -40 9 -40
42 -74 72 -75 25 0 30 29 22 152 -13 215 -7 684 10 843 2 17 7 58 10 92 4 34
9 72 12 85 3 13 7 37 9 53 20 180 155 682 190 707 5 4 7 8 3 8 -7 0 13 49 63
156 16 34 29 67 29 73 0 6 4 11 9 11 5 0 15 15 22 33 23 58 154 268 172 275 4
2 7 8 7 14 0 10 72 104 140 183 14 16 81 86 150 155 106 105 198 182 350 293
74 53 214 137 305 183 28 14 57 29 65 34 29 19 232 110 244 110 6 0 16 4 22 9
23 20 419 155 516 176 15 3 38 9 50 14 13 5 26 9 31 10 4 0 8 1 10 2 1 0 9 2
17 4 8 2 38 9 65 15 28 7 59 14 70 16 11 2 52 11 90 19 39 9 81 18 95 20 14 2
25 4 25 5 0 4 122 25 200 35 17 2 30 4 30 5 0 2 33 8 80 15 22 3 49 7 61 9 11
2 45 7 75 10 30 3 63 8 74 10 43 8 140 17 135 12 -3 -2 -57 -19 -120 -36 -63
-17 -124 -35 -135 -40 -16 -7 -176 -61 -195 -65 -3 -1 -18 -7 -35 -14 -16 -6
-50 -19 -75 -29 -25 -9 -56 -22 -70 -29 -14 -7 -28 -13 -32 -13 -19 0 -319
-147 -410 -201 -27 -16 -53 -29 -58 -29 -6 0 -10 -4 -10 -10 0 -5 -11 -12 -25
-16 -14 -3 -25 -10 -25 -14 0 -4 -13 -13 -30 -20 -16 -7 -30 -17 -30 -22 0 -5
-4 -7 -9 -4 -5 4 -11 3 -13 -1 -5 -11 -66 -53 -77 -53 -5 0 -11 -4 -13 -8 -1
-4 -25 -23 -52 -42 -28 -19 -58 -42 -67 -50 -10 -8 -24 -20 -31 -25 -171 -132
-415 -369 -538 -524 -19 -24 -42 -52 -50 -61 -8 -9 -19 -24 -25 -32 -5 -9 -36
-53 -69 -99 -71 -101 -186 -291 -186 -307 0 -7 -4 -12 -10 -12 -5 0 -10 -7
-10 -15 0 -8 -14 -37 -30 -65 -17 -28 -30 -54 -30 -58 0 -4 -9 -25 -19 -46
-16 -30 -30 -62 -46 -106 -4 -10 -26 -65 -32 -80 -3 -8 -7 -17 -8 -20 0 -3 -6
-21 -13 -41 -7 -20 -14 -45 -17 -55 -2 -10 -13 -45 -24 -76 -11 -32 -18 -58
-15 -58 3 0 0 -8 -5 -17 -5 -10 -12 -31 -15 -48 -3 -16 -10 -48 -15 -69 -5
-22 -9 -42 -9 -45 0 -3 -1 -9 -2 -13 -6 -18 -20 -106 -26 -153 -1 -16 -5 -48
-8 -70 -20 -141 -25 -416 -11 -555 4 -47 9 -101 11 -120 1 -19 3 -35 4 -35 2
0 6 -20 16 -85 4 -25 9 -49 10 -55 2 -5 6 -23 9 -40 12 -64 56 -214 85 -294
48 -134 97 -188 198 -220 30 -9 469 -7 552 3 19 2 69 7 110 10 41 4 91 9 110
11 19 3 55 7 80 9 52 6 116 15 145 21 11 2 40 7 65 10 51 7 85 13 85 15 0 1
14 3 30 5 17 3 64 12 105 20 41 9 84 18 95 21 11 2 63 15 115 29 52 14 104 27
115 29 27 5 212 68 315 106 47 18 100 37 118 44 17 6 32 14 32 18 0 5 8 8 18
8 9 0 32 9 50 20 17 11 32 18 32 15 0 -8 287 143 308 163 7 6 18 12 23 12 5 0
15 5 22 11 7 5 46 32 87 60 121 79 224 156 295 220 17 15 57 51 89 81 81 73
216 214 264 278 15 19 35 44 45 55 10 11 34 44 55 75 20 30 45 63 54 74 30 33
154 247 221 381 80 161 180 401 201 485 2 8 11 35 20 60 15 46 47 155 70 245
16 60 43 183 61 275 3 14 7 35 9 46 7 35 17 97 22 129 2 17 5 44 8 60 38 266
54 456 61 751 2 99 5 185 6 190 1 5 1 11 0 14 -6 20 -4 160 2 160 5 0 5 5 2
11 -4 5 -9 61 -11 122 -4 115 -9 207 -19 337 -3 41 -7 102 -10 135 -5 81 -14
170 -22 225 -3 25 -6 64 -7 87 0 24 -3 43 -6 43 -3 0 -5 12 -5 28 -1 31 -7 80
-35 277 -11 77 -22 156 -24 175 -3 19 -5 35 -6 35 -2 0 -6 24 -14 80 -8 64
-16 114 -22 145 -3 14 -7 39 -10 55 -2 17 -9 50 -14 75 -8 40 -16 82 -25 145
-2 11 -4 20 -5 20 -1 0 -3 9 -5 20 -1 11 -5 34 -9 50 -4 17 -9 46 -12 65 -8
60 -35 95 -76 98 -33 3 -44 -4 -142 -96z"/>
</g>
</svg>
